{"glyphs":{"0":{"ha":741,"x_min":67,"x_max":754,"o":"m 77 492 q 133 694 94 607 q 227 839 172 781 q 347 925 281 897 q 484 948 413 953 q 679 835 605 934 q 754 567 754 736 q 751 501 754 535 q 742 431 749 468 q 688 238 726 322 q 596 96 650 153 q 477 11 543 38 q 337 -10 410 -16 q 227 24 276 -5 q 141 102 177 53 q 86 220 105 152 q 67 372 67 287 q 77 492 67 426 m 198 481 q 189 407 192 442 q 187 338 187 372 q 227 144 187 219 q 350 64 267 70 q 446 85 402 59 q 524 160 490 110 q 583 282 559 211 q 621 442 607 353 q 631 523 627 484 q 634 599 634 562 q 594 789 634 718 q 471 867 554 860 q 296 773 366 876 q 198 481 227 669 z "},"1":{"ha":433,"x_min":129,"x_max":412,"o":"m 164 805 l 388 936 l 412 936 q 399 883 405 916 q 385 803 393 849 l 284 136 l 284 137 q 281 112 281 125 q 281 86 281 99 q 287 37 281 59 q 299 0 292 14 l 129 0 q 159 53 144 19 q 182 133 174 86 q 223 407 203 267 q 265 682 244 548 q 271 718 268 701 q 273 747 273 736 q 250 785 273 784 q 180 773 227 787 l 158 766 l 164 805 z "},"2":{"ha":631,"x_min":19,"x_max":655,"o":"m 647 699 q 627 635 642 666 q 578 559 611 603 q 485 447 544 514 q 332 276 426 380 q 248 184 299 239 q 155 80 198 129 l 433 80 q 513 88 482 80 q 567 113 544 96 q 559 79 562 93 q 553 54 556 65 q 549 31 551 43 q 543 0 548 19 l 19 0 q 24 38 22 22 q 29 75 26 54 q 135 197 81 139 q 238 310 188 255 q 343 427 292 369 q 434 537 394 485 q 500 634 474 589 q 533 712 527 678 q 528 766 536 738 q 501 819 520 795 q 450 859 482 843 q 374 878 418 875 q 268 866 316 881 q 187 824 220 851 q 192 852 190 841 q 196 872 195 864 q 200 892 198 881 q 204 918 201 902 q 287 944 236 934 q 418 948 338 955 q 521 925 476 945 q 597 872 567 905 q 641 793 627 838 q 647 699 655 749 z "},"3":{"ha":631,"x_min":53,"x_max":637,"o":"m 568 265 q 523 155 556 204 q 444 69 490 105 q 342 14 398 34 q 228 -6 286 -6 q 117 7 153 -6 q 53 38 80 21 l 67 128 q 126 85 89 102 q 216 67 163 67 q 300 82 260 67 q 371 124 340 97 q 423 183 402 150 q 453 252 444 216 q 457 326 460 291 q 433 389 453 361 q 374 434 413 417 q 271 453 335 452 l 217 453 q 223 489 220 476 q 228 522 225 503 l 259 522 q 368 540 322 524 q 444 584 413 557 q 492 647 474 611 q 519 718 509 682 q 517 773 524 746 q 492 824 511 801 q 442 860 474 846 q 362 875 410 875 q 264 859 310 875 q 187 816 219 843 q 191 844 190 835 q 193 860 192 852 q 196 876 195 867 q 201 902 198 884 q 285 934 233 920 q 418 948 337 948 q 578 896 519 948 q 637 763 637 845 q 631 718 637 739 q 613 663 624 691 q 580 604 602 634 q 520 544 557 575 q 426 485 484 514 q 504 442 474 469 q 551 384 535 415 q 570 321 567 353 q 568 265 573 289 z "},"4":{"ha":701,"x_min":54,"x_max":690,"o":"m 669 270 l 536 270 l 517 137 q 513 111 514 125 q 512 85 512 97 q 517 34 512 56 q 530 0 522 13 l 361 0 q 391 53 375 19 q 415 133 407 86 l 433 270 l 54 270 q 60 306 57 292 q 65 340 62 319 q 307 639 187 492 q 548 936 426 785 l 640 936 q 616 803 631 900 l 549 351 q 627 355 591 351 q 690 374 663 359 l 669 270 m 517 811 q 488 768 511 800 q 432 693 465 736 q 361 600 399 650 q 285 504 322 551 q 216 417 247 457 q 164 353 184 377 l 447 351 l 511 782 l 517 811 z "},"5":{"ha":627,"x_min":54,"x_max":643,"o":"m 233 567 l 353 567 q 474 547 426 567 q 550 495 522 527 q 589 424 578 463 q 600 346 600 385 q 599 313 600 329 q 594 281 597 297 l 594 283 q 548 169 581 222 q 468 77 514 117 q 366 16 421 38 q 252 -6 310 -6 q 129 7 176 -6 q 54 38 81 21 q 62 88 59 65 q 69 134 65 110 q 140 87 96 107 q 239 67 184 67 q 325 85 284 67 q 397 133 366 104 q 449 197 428 161 q 477 268 469 233 q 482 322 482 294 q 473 383 482 354 q 444 435 465 412 q 387 472 423 458 q 299 487 351 485 l 131 487 l 235 936 l 643 936 q 637 880 640 904 q 631 827 634 857 q 583 849 613 843 q 501 856 552 856 l 300 856 l 233 567 z "},"6":{"ha":650,"x_min":62,"x_max":663,"o":"m 479 872 q 395 848 437 872 q 315 781 353 825 q 249 674 278 738 q 209 533 220 611 q 306 593 255 572 q 425 607 356 615 q 519 572 479 597 q 586 511 559 546 q 627 433 613 476 q 640 350 640 391 q 640 320 640 334 q 637 294 640 307 q 595 172 627 228 q 518 73 564 115 q 417 10 473 32 q 305 -10 362 -13 q 125 89 188 -2 q 62 327 62 179 q 72 447 62 385 q 131 655 89 562 q 230 813 172 747 q 356 913 287 878 q 498 948 425 948 q 663 923 591 948 q 655 866 659 891 q 647 813 650 841 q 479 872 584 872 m 378 527 q 285 514 337 530 q 196 455 233 498 q 187 370 190 410 q 184 294 184 330 q 217 124 184 180 q 313 64 251 67 q 388 80 353 61 q 450 131 423 99 q 496 204 477 163 q 520 289 514 246 q 525 354 525 322 q 491 477 525 431 q 378 527 457 522 z "},"7":{"ha":591,"x_min":97,"x_max":678,"o":"m 672 908 q 601 787 642 859 q 515 631 560 715 q 424 457 469 548 q 339 283 378 367 q 271 125 300 200 q 228 0 241 51 l 97 0 q 149 126 115 53 q 227 282 184 200 q 320 449 270 364 q 418 612 370 535 q 508 753 466 690 q 581 856 551 816 l 260 856 q 179 848 209 856 q 126 822 148 840 q 134 856 131 843 q 140 881 137 870 q 145 904 142 892 q 153 936 148 916 l 678 936 l 672 908 z "},"8":{"ha":656,"x_min":43,"x_max":663,"o":"m 53 286 q 77 351 57 318 q 125 414 96 385 q 192 465 153 444 q 275 496 230 487 q 174 623 203 556 q 153 742 145 691 q 186 832 161 793 q 249 896 211 870 q 336 936 287 923 q 441 948 385 948 q 538 925 495 948 q 610 864 581 902 q 651 779 639 827 q 656 680 663 731 q 643 628 651 655 q 617 576 635 602 q 567 523 599 549 q 485 473 535 496 q 556 407 528 441 q 600 339 584 374 q 620 273 616 305 q 619 216 624 241 q 581 115 611 156 q 506 46 551 73 q 406 6 461 19 q 294 -6 351 -6 q 188 17 236 -6 q 105 80 139 40 q 57 173 72 120 q 53 286 43 227 m 506 225 q 500 292 512 262 q 461 349 487 322 q 400 399 436 375 q 324 445 364 423 q 216 377 255 426 q 166 265 177 327 q 169 196 161 231 q 196 133 177 161 q 245 87 216 105 q 313 69 275 69 q 445 112 394 69 q 506 225 495 155 m 551 696 q 549 752 554 722 q 529 809 544 782 q 489 855 514 837 q 425 873 463 873 q 358 862 386 873 q 310 832 329 851 q 279 789 291 813 q 262 741 267 765 q 292 631 252 677 q 402 535 332 586 q 463 560 437 546 q 506 592 489 573 q 535 636 524 611 q 551 696 546 661 z "},"9":{"ha":655,"x_min":69,"x_max":669,"o":"m 251 67 q 334 90 291 67 q 414 156 377 113 q 481 263 452 200 q 522 405 509 326 q 435 345 489 367 q 307 330 382 322 q 212 364 252 338 q 143 425 171 390 q 101 502 115 460 q 88 586 88 544 q 88 615 88 600 q 91 643 88 629 q 133 762 101 707 q 212 859 166 817 q 314 924 259 900 q 426 948 370 948 q 531 921 485 948 q 607 848 576 894 q 654 741 639 803 q 669 608 669 678 q 659 490 669 552 q 600 283 642 375 q 501 125 559 190 q 375 26 444 61 q 233 -10 307 -10 q 69 16 140 -10 q 77 73 72 48 q 85 126 81 97 q 251 67 144 67 m 351 409 q 445 421 393 405 q 535 482 496 437 q 544 566 541 527 q 548 642 548 605 q 417 873 548 860 q 342 856 377 875 q 280 805 308 838 q 234 732 252 773 q 208 648 216 691 q 203 586 203 619 q 238 461 203 508 q 351 409 273 413 z "},"\u0000":{"ha":3,"x_min":0,"x_max":0,"o":""}," ":{"ha":249,"x_min":0,"x_max":0,"o":""},"!":{"ha":297,"x_min":45,"x_max":326,"o":"m 196 942 l 326 942 l 302 816 l 177 262 l 142 262 l 179 811 l 196 942 m 49 78 q 81 132 54 115 q 142 145 109 148 l 140 145 q 194 116 174 140 q 209 54 214 91 q 177 3 204 19 q 117 -10 150 -13 l 118 -10 q 65 20 86 -5 q 49 78 45 45 z "},"\"":{"ha":444,"x_min":121,"x_max":461,"o":"m 155 969 l 244 969 l 227 845 l 227 846 l 182 645 l 121 645 q 130 744 125 698 q 139 841 136 790 l 155 969 m 374 969 l 461 969 l 445 845 l 445 846 l 399 645 l 338 645 q 347 744 342 698 q 356 841 353 790 l 374 969 z "},"#":{"ha":814,"x_min":67,"x_max":827,"o":"m 399 0 l 474 225 l 260 225 l 184 0 l 115 0 l 190 225 l 67 225 l 80 303 l 216 303 l 327 639 l 176 639 q 182 679 179 663 q 188 718 185 696 l 350 718 q 387 830 369 773 q 423 942 405 888 l 493 942 l 418 718 l 635 718 q 672 830 653 773 q 709 942 691 888 l 779 942 l 704 718 l 827 718 l 817 639 l 677 639 l 568 303 l 720 303 l 707 225 l 544 225 l 469 0 l 399 0 m 501 303 l 611 639 l 394 639 l 283 303 l 501 303 z "},"$":{"ha":610,"x_min":32,"x_max":635,"o":"m 463 195 q 461 265 469 235 q 434 321 453 295 q 387 369 415 346 q 329 413 359 391 q 250 474 289 441 q 182 549 211 508 q 139 640 153 591 q 134 749 125 690 q 166 836 140 798 q 231 899 192 873 q 322 936 271 924 q 429 948 372 948 q 558 936 509 948 q 635 905 607 923 q 627 856 632 878 q 618 808 621 833 q 548 856 592 838 q 449 875 504 875 q 307 842 356 875 q 247 755 257 809 q 254 694 243 723 q 287 639 265 666 q 338 587 310 613 q 399 538 367 562 q 470 476 437 508 q 528 409 503 444 q 568 334 554 374 q 583 249 583 294 q 582 227 583 239 q 580 203 581 216 q 541 105 570 147 q 469 37 512 64 q 368 -4 425 10 q 247 -18 311 -18 q 115 -4 166 -18 q 32 27 64 10 q 36 84 34 56 q 42 139 38 112 q 127 79 73 102 q 236 56 180 56 q 396 98 335 56 q 463 196 457 140 l 463 195 m 410 1052 l 463 1052 q 374 455 418 749 q 284 -140 329 161 l 231 -140 l 410 1052 z "},"%":{"ha":867,"x_min":61,"x_max":878,"o":"m 121 0 l 61 0 q 69 10 65 5 q 85 27 73 14 q 117 65 96 40 q 172 135 137 91 q 261 245 208 179 q 392 408 314 311 q 573 635 469 504 q 814 936 677 765 l 878 936 l 121 0 m 517 214 q 544 316 525 271 q 591 391 564 361 q 650 437 618 421 q 715 453 682 453 q 806 408 769 453 q 843 276 843 362 q 838 219 843 249 q 764 51 821 112 q 640 -10 707 -10 q 548 34 584 -10 q 512 158 512 78 q 517 214 512 182 m 587 219 q 583 150 583 180 q 599 65 583 96 q 651 35 616 35 q 721 84 690 35 q 766 214 752 133 q 771 287 771 254 q 754 377 771 345 q 704 409 738 409 q 631 357 663 409 q 587 219 600 305 m 105 706 q 180 883 123 821 q 303 945 236 945 q 394 900 358 945 q 431 771 431 854 q 426 709 431 744 q 399 614 418 656 q 353 543 380 572 q 294 498 326 514 q 230 482 262 482 q 138 527 176 482 q 101 653 101 572 q 105 706 101 677 m 176 709 q 171 645 171 675 q 188 558 171 591 q 241 525 204 525 q 311 575 281 525 q 354 706 342 624 q 359 745 358 726 q 361 781 361 763 q 342 868 361 837 q 292 899 324 899 q 220 848 251 899 q 176 709 190 797 z "},"&":{"ha":955,"x_min":38,"x_max":913,"o":"m 658 723 q 632 650 653 680 q 582 596 611 619 q 516 555 552 573 q 442 519 479 536 l 651 239 q 707 338 685 291 q 736 418 730 385 q 742 476 742 444 q 736 516 742 498 l 859 516 q 826 470 838 496 q 809 418 814 444 q 772 307 800 374 q 698 176 744 241 q 781 98 734 125 q 873 72 829 72 q 895 72 884 72 q 913 75 905 72 q 868 18 900 43 q 782 -8 837 -8 q 691 18 731 -8 q 611 91 651 45 q 487 24 559 54 q 338 -6 415 -6 q 314 -6 326 -6 q 291 -3 303 -5 q 185 26 233 3 q 104 84 137 48 q 54 168 70 120 q 48 275 38 216 q 75 362 54 326 q 125 424 96 398 q 188 470 153 450 q 255 508 222 490 l 292 522 q 231 641 254 573 q 214 769 208 709 q 245 841 222 808 q 302 897 268 873 q 375 933 335 921 q 458 943 415 945 q 552 915 512 936 q 618 864 592 894 q 653 797 643 833 q 658 723 663 761 m 314 64 q 382 65 348 59 q 450 83 417 70 q 514 113 484 96 q 568 150 544 131 l 327 479 q 267 443 295 461 q 214 402 238 425 q 174 349 190 378 q 152 281 158 319 q 182 136 139 195 q 314 64 225 77 m 556 741 q 536 830 564 792 q 460 876 509 868 q 409 871 433 880 q 367 847 385 862 q 338 811 350 832 q 322 768 326 790 q 338 668 314 717 q 405 572 362 619 q 468 610 441 592 q 513 647 495 627 q 542 688 532 666 q 556 741 552 710 z "},"'":{"ha":225,"x_min":123,"x_max":246,"o":"m 156 969 l 246 969 l 228 845 l 228 846 l 184 645 l 123 645 q 132 744 126 698 q 140 841 137 790 l 156 969 z "},"(":{"ha":399,"x_min":89,"x_max":476,"o":"m 235 -246 q 125 -7 160 -126 q 89 231 89 112 q 99 359 89 294 q 200 662 121 511 q 420 967 278 813 l 476 967 q 382 833 426 907 q 303 680 338 760 q 241 519 267 600 q 204 362 216 437 q 195 223 195 297 q 222 -26 195 97 q 299 -246 249 -150 l 235 -246 z "},")":{"ha":399,"x_min":-14,"x_max":374,"o":"m -14 -246 q 77 -113 34 -187 q 157 42 121 -38 q 220 203 193 121 q 259 359 246 284 q 265 424 263 390 q 267 492 267 458 q 239 744 267 619 q 163 967 212 868 l 227 967 q 338 726 303 846 q 374 485 374 605 q 371 423 374 453 q 362 362 369 393 q 262 60 340 211 q 42 -246 184 -91 l -14 -246 z "},"*":{"ha":457,"x_min":88,"x_max":487,"o":"m 281 710 l 171 548 q 137 571 152 562 q 105 594 123 580 l 243 723 l 88 755 q 109 801 99 782 q 131 845 120 821 l 268 761 q 270 856 268 805 q 271 951 271 907 l 364 951 l 311 760 l 474 843 l 487 755 l 322 725 l 421 597 l 340 548 l 281 710 z "},"+":{"ha":686,"x_min":105,"x_max":677,"o":"m 471 720 l 433 461 l 677 461 l 664 383 l 420 383 q 401 255 412 324 q 382 126 390 187 l 311 126 l 350 383 l 105 383 l 118 461 l 362 461 q 380 590 370 522 q 399 720 390 658 l 471 720 z "},",":{"ha":302,"x_min":85,"x_max":249,"o":"m 241 24 q 196 -79 231 -32 q 96 -156 161 -126 q 132 -107 118 -133 q 148 -61 145 -81 q 143 -24 152 -43 q 118 3 134 -5 l 120 3 q 93 35 102 13 q 86 80 85 57 q 119 131 93 113 q 177 145 145 148 q 229 105 209 137 q 241 24 249 73 z "},"-":{"ha":525,"x_min":99,"x_max":487,"o":"m 115 380 l 487 380 q 479 339 484 358 q 471 302 474 321 l 99 302 l 115 380 z "},".":{"ha":302,"x_min":75,"x_max":244,"o":"m 81 78 q 113 132 86 115 q 172 145 139 148 q 224 114 204 140 q 241 54 244 88 q 208 4 235 21 q 148 -10 182 -13 q 95 19 115 -5 q 81 77 75 43 l 81 78 z "},"/":{"ha":450,"x_min":-32,"x_max":556,"o":"m -32 -247 q 227 360 99 61 q 485 967 354 659 l 556 967 q 296 359 425 658 q 38 -247 168 61 l -32 -247 z "},":":{"ha":302,"x_min":54,"x_max":300,"o":"m 61 65 q 93 124 65 102 q 156 145 120 145 q 208 123 188 145 q 223 69 227 101 q 190 11 217 32 q 129 -10 163 -10 q 74 10 94 -10 q 61 65 54 30 m 134 557 q 167 615 139 594 q 228 637 195 637 q 281 615 262 637 q 297 560 300 592 q 264 504 291 525 q 201 482 238 482 q 148 502 168 482 q 134 557 129 522 z "},";":{"ha":302,"x_min":64,"x_max":310,"o":"m 140 557 q 173 615 145 594 q 235 637 201 637 q 289 616 268 637 q 302 560 310 595 q 270 503 297 524 q 208 482 243 482 q 155 502 174 482 q 140 557 136 522 m 225 42 q 181 -69 217 -18 q 81 -152 145 -120 q 115 -105 102 -129 q 131 -64 128 -81 q 125 -29 134 -46 q 99 -3 117 -11 q 73 23 81 5 q 67 65 64 42 q 99 124 72 102 q 163 145 126 145 q 215 118 196 145 q 225 42 233 91 z "},"<":{"ha":686,"x_min":104,"x_max":709,"o":"m 709 685 q 704 645 706 663 q 699 608 702 627 l 195 423 l 642 239 q 635 200 639 217 q 629 161 632 182 q 366 270 490 217 q 104 378 241 322 l 120 468 l 709 685 z "},"=":{"ha":686,"x_min":86,"x_max":694,"o":"m 661 348 q 653 307 658 326 q 645 268 648 289 l 86 268 q 93 309 89 291 q 102 348 97 327 l 661 348 m 694 576 l 682 498 l 123 498 l 136 576 l 694 576 z "},">":{"ha":686,"x_min":72,"x_max":677,"o":"m 677 468 l 663 378 q 367 270 512 324 q 72 161 222 216 l 85 238 l 589 423 l 140 607 q 145 646 144 629 q 150 685 147 663 l 677 468 z "},"?":{"ha":552,"x_min":105,"x_max":581,"o":"m 188 291 q 212 376 196 338 q 250 445 228 413 q 297 500 271 476 q 346 549 322 525 q 426 636 393 594 q 461 738 460 678 q 434 833 463 792 q 329 875 405 875 q 231 859 281 875 q 147 813 182 843 q 151 841 148 830 q 155 861 153 852 q 158 880 156 870 q 161 904 160 889 q 256 936 208 924 q 361 948 305 948 q 522 888 463 948 q 578 728 581 829 q 561 657 576 690 q 523 597 546 624 q 472 546 500 570 q 415 498 444 522 q 362 453 388 476 q 313 407 335 431 q 275 355 291 383 q 255 295 260 327 l 249 262 l 184 262 l 188 291 m 110 78 q 142 132 115 115 q 203 145 169 148 l 201 145 q 254 116 233 140 q 270 54 275 91 q 238 3 265 19 q 177 -10 211 -13 l 179 -10 q 125 20 145 -5 q 110 78 105 45 z "},"@":{"ha":966,"x_min":77,"x_max":977,"o":"m 742 222 q 657 237 701 220 q 597 295 613 254 q 510 228 559 246 q 410 211 461 211 q 328 251 361 211 q 295 364 295 291 q 307 447 295 404 q 348 553 321 504 q 409 636 375 602 q 483 690 444 670 q 559 710 522 710 q 619 697 587 710 q 666 655 651 683 q 672 682 670 669 q 677 704 674 696 l 757 704 q 750 679 755 702 q 726 586 744 656 l 691 450 q 679 394 683 420 q 675 348 675 367 q 697 281 675 299 q 757 263 718 263 q 856 323 816 263 q 899 490 896 383 q 876 651 902 576 q 801 781 849 726 q 686 866 754 835 q 540 897 619 897 q 398 867 465 897 q 282 780 332 837 q 200 641 231 723 q 168 457 169 559 q 191 283 164 361 q 265 149 217 204 q 378 64 313 94 q 516 34 442 34 q 641 45 581 34 q 752 81 701 56 q 745 52 747 59 q 738 22 742 45 q 632 -10 691 2 q 509 -21 573 -21 q 338 14 418 -21 q 200 111 259 48 q 109 262 142 174 q 80 457 77 350 q 120 661 81 570 q 221 816 158 752 q 366 914 284 880 q 540 948 449 948 q 713 913 632 948 q 852 817 793 878 q 944 674 912 757 q 974 493 977 591 q 955 385 972 434 q 906 299 937 335 q 833 243 875 263 q 742 222 792 222 m 388 460 q 378 413 382 434 q 375 372 375 391 q 402 287 375 311 q 463 263 429 263 q 500 271 479 263 q 540 294 520 278 q 578 336 560 310 q 607 401 595 362 l 647 572 q 629 637 656 613 q 565 661 602 661 q 461 610 508 659 q 388 460 413 560 z "},"A":{"ha":881,"x_min":10,"x_max":829,"o":"m 613 338 l 275 338 q 229 239 252 292 q 184 140 206 187 q 164 89 169 113 q 158 49 158 65 q 168 2 158 18 q 86 1 123 2 q 10 0 49 0 q 51 49 27 18 q 99 128 75 80 l 420 793 q 437 836 429 811 q 444 883 444 860 q 431 936 444 910 l 611 936 q 631 836 618 894 q 663 686 643 777 q 710 459 683 594 q 774 131 738 324 q 800 53 784 86 q 829 0 816 19 l 629 0 q 646 34 639 13 q 653 86 653 54 q 648 137 653 110 l 613 338 m 311 413 l 597 413 l 512 833 l 311 413 z "},"B":{"ha":702,"x_min":35,"x_max":683,"o":"m 669 701 q 653 640 666 670 q 619 583 640 610 q 568 538 597 557 q 503 511 538 519 l 503 506 q 586 473 551 496 q 643 417 621 449 q 674 346 666 385 q 680 273 683 308 q 572 73 669 145 q 322 0 474 0 l 35 0 q 65 53 49 19 q 88 133 80 86 q 136 466 110 297 q 187 800 163 635 q 187 881 193 846 q 172 936 180 916 l 378 936 q 603 881 527 936 q 669 701 680 827 m 239 458 l 180 80 l 316 80 q 481 136 421 80 q 551 281 541 193 q 508 410 559 362 q 353 458 458 458 l 239 458 m 299 856 l 249 530 l 348 530 q 477 575 426 530 q 536 688 528 619 q 500 816 544 776 q 374 856 455 856 l 299 856 z "},"C":{"ha":749,"x_min":69,"x_max":809,"o":"m 203 463 q 200 437 201 450 q 200 409 200 423 q 223 267 200 330 q 286 157 246 203 q 378 86 326 112 q 487 61 429 61 q 603 80 548 61 q 702 137 659 99 q 698 109 699 120 q 694 88 696 97 q 691 69 693 78 q 688 45 690 59 q 584 4 640 18 q 455 -10 528 -10 q 307 19 377 -10 q 184 101 236 48 q 100 231 131 155 q 69 402 69 307 q 69 431 69 417 q 72 460 70 445 q 129 667 83 576 q 243 821 176 758 q 394 916 311 883 q 559 948 476 948 q 707 935 640 948 q 809 904 774 921 q 801 852 806 876 q 792 803 795 827 q 700 856 760 837 q 565 875 640 875 q 437 845 498 875 q 326 762 375 816 q 245 632 278 709 q 203 463 212 556 z "},"D":{"ha":800,"x_min":34,"x_max":811,"o":"m 34 0 q 64 53 49 19 q 86 133 78 86 q 136 466 110 297 q 187 800 161 635 q 186 881 193 846 q 171 936 179 916 l 429 936 q 580 908 511 936 q 701 828 650 881 q 781 695 752 774 q 811 512 811 616 q 811 489 811 500 q 809 463 811 477 q 762 269 801 354 q 662 124 723 184 q 522 32 600 64 q 358 0 444 0 l 34 0 m 297 856 l 179 75 l 369 75 q 487 103 433 75 q 583 181 541 131 q 652 303 626 231 q 686 460 678 374 q 688 488 688 473 q 688 514 688 503 q 615 767 688 678 q 420 856 541 856 l 297 856 z "},"E":{"ha":589,"x_min":35,"x_max":655,"o":"m 508 0 l 35 0 q 65 53 49 19 q 88 133 80 86 l 187 800 l 187 798 q 192 851 192 824 q 186 902 192 881 q 174 936 180 923 l 655 936 q 647 878 651 904 q 640 824 643 852 q 591 848 621 841 q 511 856 562 856 l 299 856 l 247 519 l 468 519 q 524 528 500 519 q 565 546 548 536 q 556 477 559 506 q 548 417 552 449 q 510 437 533 428 q 452 445 487 445 l 236 445 l 182 80 l 399 80 q 479 89 447 80 q 533 115 511 99 l 508 0 z "},"F":{"ha":575,"x_min":35,"x_max":655,"o":"m 236 445 l 190 136 q 189 53 184 88 q 203 2 195 19 q 117 1 156 2 q 35 0 78 0 q 64 53 48 19 q 88 133 80 86 l 187 800 l 187 798 q 192 851 192 824 q 186 902 192 881 q 174 936 180 923 l 655 936 q 647 878 651 904 q 640 824 643 852 q 591 848 621 841 q 511 856 562 856 l 299 856 l 247 519 l 468 519 q 524 528 500 519 q 565 546 548 536 q 556 477 559 506 q 548 417 552 449 q 510 437 533 428 q 452 445 487 445 l 236 445 z "},"G":{"ha":848,"x_min":65,"x_max":840,"o":"m 757 78 q 623 11 691 32 q 469 -10 556 -10 q 311 24 386 -10 q 181 120 236 57 q 96 268 126 182 q 72 460 65 354 q 129 664 81 573 q 247 818 177 755 q 403 915 318 881 q 573 948 489 948 q 729 934 655 948 q 840 904 803 920 q 832 851 837 875 q 824 801 827 827 q 723 856 787 838 q 583 875 659 875 q 443 845 509 875 q 326 762 377 816 q 242 632 275 709 q 203 463 209 556 q 216 300 195 374 q 277 173 236 227 q 374 90 318 120 q 496 61 431 61 q 577 73 543 61 q 658 109 611 85 l 691 319 q 690 394 698 366 q 675 439 683 423 l 838 439 q 812 394 825 423 q 793 322 798 366 l 757 78 z "},"H":{"ha":821,"x_min":34,"x_max":878,"o":"m 726 136 l 726 137 q 722 85 722 110 q 726 34 722 56 q 738 0 731 13 l 570 0 q 599 53 584 19 q 623 133 615 86 l 670 453 l 236 453 l 188 136 l 188 137 q 185 112 185 125 q 185 86 185 99 q 191 37 185 59 q 203 0 196 14 l 34 0 q 63 53 48 19 q 86 133 78 86 q 135 466 109 297 q 185 800 161 635 q 186 881 193 846 q 171 936 179 916 l 342 936 q 312 884 327 918 q 289 803 297 851 l 246 527 l 682 527 l 723 800 q 724 884 730 851 q 710 936 718 918 l 878 936 q 849 884 864 918 q 827 803 835 849 l 726 136 z "},"I":{"ha":299,"x_min":37,"x_max":345,"o":"m 193 137 q 190 112 190 125 q 190 86 190 99 q 195 37 190 59 q 206 0 200 14 l 37 0 q 66 53 51 19 q 89 133 81 86 q 138 466 112 297 q 190 800 164 635 q 189 881 196 846 q 174 936 182 916 l 345 936 q 315 885 330 918 q 292 803 300 852 l 193 137 z "},"J":{"ha":299,"x_min":-134,"x_max":353,"o":"m 195 86 q 148 -65 179 -3 q 82 -166 118 -128 q 10 -222 46 -204 q -54 -239 -27 -239 q -104 -229 -85 -239 q -134 -201 -123 -219 q -68 -183 -102 -198 q -2 -133 -34 -168 q 56 -42 30 -99 q 94 101 81 14 l 200 800 q 200 882 208 848 q 185 936 193 916 l 353 936 q 325 884 340 918 q 303 803 310 849 l 195 86 z "},"K":{"ha":701,"x_min":34,"x_max":757,"o":"m 244 517 l 533 822 q 580 892 572 864 q 581 936 587 920 l 757 936 q 704 897 734 923 q 647 843 674 872 l 350 533 l 591 97 q 631 41 608 65 q 670 0 653 16 l 457 0 q 464 16 461 8 q 466 38 466 24 q 444 110 466 67 l 238 473 l 190 136 l 190 137 q 187 112 187 125 q 187 86 187 99 q 192 37 187 59 q 203 0 196 14 l 34 0 q 64 53 49 19 q 86 133 78 86 l 187 800 q 187 881 193 846 q 172 936 180 916 l 342 936 q 312 885 327 918 q 289 803 297 852 l 244 517 z "},"L":{"ha":567,"x_min":35,"x_max":535,"o":"m 509 0 l 35 0 q 65 53 51 19 q 88 133 80 86 q 137 466 112 297 q 188 800 163 635 q 188 881 195 846 q 174 936 182 916 l 343 936 q 314 885 329 918 q 291 803 299 852 l 192 136 l 184 80 l 399 80 q 481 91 449 80 q 535 120 512 102 l 509 0 z "},"M":{"ha":1050,"x_min":30,"x_max":1098,"o":"m 182 800 q 183 881 190 846 q 168 936 176 916 l 295 936 q 333 830 311 891 q 385 682 354 769 q 453 477 415 595 q 541 198 492 359 q 769 591 670 423 q 916 843 867 758 q 951 900 939 876 q 971 936 964 923 l 1098 936 q 1070 883 1086 916 q 1046 803 1054 849 l 948 136 l 948 137 q 943 85 943 110 q 948 35 943 56 q 961 0 953 14 l 792 0 q 821 49 806 18 q 845 131 837 81 l 923 653 l 939 733 q 848 584 894 661 q 759 432 803 508 q 675 287 715 356 q 603 160 635 217 q 547 61 570 102 q 514 0 524 19 l 481 0 q 467 45 477 13 q 441 123 457 78 q 408 222 426 168 q 370 334 390 276 q 331 446 353 386 q 291 561 310 506 q 257 659 271 616 q 238 718 243 701 l 235 656 q 196 396 217 527 q 156 136 174 265 l 156 137 q 153 112 153 125 q 153 86 153 99 q 158 37 153 59 q 169 0 163 14 l 30 0 q 60 53 45 19 q 83 133 75 86 q 132 466 105 297 q 182 800 158 635 z "},"N":{"ha":825,"x_min":29,"x_max":886,"o":"m 710 0 l 650 0 l 548 198 q 460 354 506 270 q 371 516 413 437 q 296 656 329 594 q 251 750 263 718 q 229 602 241 680 q 205 443 217 524 q 182 283 193 362 q 161 136 171 204 l 161 137 q 156 85 156 110 q 161 34 156 56 q 172 0 166 13 l 29 0 q 59 53 43 19 q 83 133 75 86 q 131 466 105 297 q 180 800 156 635 q 180 881 187 846 q 166 936 174 916 l 275 936 q 309 868 286 908 q 364 771 332 827 q 453 615 404 704 q 547 442 501 527 q 626 291 592 358 q 667 200 659 223 l 674 262 l 757 800 q 758 884 763 851 q 742 936 752 918 l 886 936 q 856 884 872 918 q 833 803 841 851 l 710 0 z "},"O":{"ha":894,"x_min":72,"x_max":902,"o":"m 73 484 q 125 682 83 595 q 231 829 168 769 q 371 919 294 888 q 528 950 449 950 q 674 910 607 943 q 793 818 742 876 q 872 679 843 760 q 902 498 902 599 q 901 469 902 485 q 899 437 900 452 q 847 245 888 330 q 746 101 806 160 q 607 14 685 43 q 444 -11 528 -16 q 299 26 367 -6 q 181 117 231 59 q 101 254 131 174 q 72 431 72 334 q 72 457 72 444 q 73 484 72 469 m 196 479 q 194 449 195 463 q 193 418 193 434 q 213 281 193 343 q 267 172 233 219 q 349 97 302 125 q 452 64 396 69 q 568 91 512 64 q 667 168 624 118 q 740 287 710 217 q 777 444 769 358 q 780 477 779 460 q 781 508 781 493 q 761 650 781 586 q 707 761 742 714 q 625 836 672 808 q 522 868 578 864 q 406 841 461 868 q 307 764 351 814 q 233 642 262 714 q 196 479 204 570 z "},"P":{"ha":640,"x_min":35,"x_max":688,"o":"m 227 377 l 190 136 l 190 137 q 187 112 187 125 q 187 86 187 99 q 192 37 187 59 q 203 0 196 14 l 35 0 q 65 53 49 19 q 88 133 80 86 q 136 466 110 297 q 187 800 163 635 q 187 881 193 846 q 172 936 180 916 l 382 936 q 505 923 449 936 q 603 883 562 910 q 666 813 643 856 q 688 707 688 769 q 683 648 688 682 q 640 532 674 583 q 555 447 607 482 q 436 394 503 412 q 294 377 369 377 l 227 377 m 299 856 l 238 452 l 311 452 q 482 503 417 452 q 560 645 548 554 l 560 643 q 564 670 564 658 q 564 696 564 683 q 513 820 564 784 q 367 856 463 856 l 299 856 z "},"Q":{"ha":896,"x_min":78,"x_max":910,"o":"m 830 -137 q 896 -133 864 -137 q 845 -196 881 -172 q 760 -220 808 -220 q 690 -210 726 -220 q 616 -176 653 -200 q 544 -112 580 -152 q 479 -11 509 -72 q 465 -10 476 -11 q 450 -10 455 -10 q 308 30 375 -3 q 190 117 241 62 q 109 249 139 172 q 78 420 78 326 q 79 447 78 433 q 81 477 80 461 q 133 677 91 589 q 239 825 176 765 q 379 916 302 884 q 536 948 457 947 q 683 912 615 943 q 802 823 752 880 q 881 686 852 766 q 910 506 910 607 q 909 477 910 492 q 907 445 908 463 q 872 287 899 359 q 801 159 845 216 q 700 63 757 102 q 576 3 643 24 q 625 -62 595 -35 q 688 -106 655 -89 q 758 -130 722 -123 q 830 -137 795 -137 m 203 474 q 200 443 201 458 q 200 413 200 428 q 219 273 200 337 q 272 164 238 209 q 355 92 307 118 q 461 64 404 65 q 581 88 525 61 q 679 165 637 115 q 750 287 722 216 q 785 449 777 359 q 788 479 787 465 q 789 509 789 493 q 718 769 789 674 q 528 868 647 864 q 409 845 465 870 q 311 768 354 819 q 240 643 268 717 q 203 474 212 568 z "},"R":{"ha":741,"x_min":35,"x_max":656,"o":"m 228 393 l 190 136 l 190 137 q 187 112 187 125 q 187 86 187 99 q 192 37 187 59 q 204 0 196 14 l 35 0 q 65 53 49 19 q 88 133 80 86 q 136 466 110 297 q 187 800 163 635 q 187 881 193 846 q 172 936 180 916 l 354 936 q 481 920 423 936 q 578 871 538 904 q 637 786 618 838 q 650 663 656 734 q 631 580 647 619 q 589 506 615 540 q 529 448 564 473 q 457 412 495 423 l 594 97 l 594 99 q 622 41 607 64 q 655 2 637 18 q 556 1 599 2 q 463 0 514 0 q 473 21 471 10 q 476 51 476 32 q 473 76 476 62 q 463 109 471 89 l 337 393 l 228 393 m 299 856 l 238 469 l 300 469 q 394 485 353 469 q 463 526 434 500 q 508 587 492 552 q 527 659 524 621 q 489 808 535 760 q 348 856 444 856 l 299 856 z "},"S":{"ha":610,"x_min":32,"x_max":634,"o":"m 463 193 q 461 262 469 231 q 433 318 452 292 q 386 368 413 345 q 329 413 359 391 q 250 475 289 442 q 181 547 211 508 q 136 633 152 586 q 129 738 121 680 q 164 827 137 787 q 230 893 190 867 q 321 934 270 920 q 429 948 372 948 q 556 935 508 948 q 634 904 603 921 l 618 809 q 549 857 592 840 q 449 875 506 875 q 307 843 356 875 q 247 757 257 811 q 255 696 243 725 q 288 640 267 667 q 339 587 310 613 q 399 538 369 562 q 477 469 441 503 q 539 396 514 434 q 576 313 564 358 q 580 214 587 268 q 541 115 570 158 q 469 42 512 72 q 368 -2 425 13 q 247 -18 311 -18 q 114 -4 166 -18 q 32 27 62 10 q 35 84 34 56 q 40 139 37 112 q 127 79 73 102 q 236 56 180 56 q 396 97 337 56 q 463 193 455 137 z "},"T":{"ha":672,"x_min":104,"x_max":765,"o":"m 126 936 l 765 936 q 756 875 761 904 q 747 819 750 846 q 699 846 730 837 q 618 856 669 856 l 482 856 l 375 136 l 375 137 q 372 112 372 125 q 372 86 372 99 q 377 37 372 59 q 388 0 382 14 l 219 0 q 248 53 233 19 q 271 133 263 86 l 380 856 l 241 856 q 158 847 190 856 q 104 821 126 838 l 126 936 z "},"U":{"ha":824,"x_min":104,"x_max":876,"o":"m 214 308 q 209 279 211 295 q 208 251 208 263 q 251 115 208 164 q 385 65 294 65 q 445 72 412 65 q 510 90 477 78 q 573 117 543 102 q 626 152 603 133 l 723 800 q 723 881 730 846 q 709 936 717 916 l 876 936 q 848 884 864 918 q 825 803 833 849 l 726 136 l 726 137 q 723 112 723 125 q 723 86 723 99 q 728 37 723 59 q 739 0 733 14 l 607 0 q 613 30 610 14 q 618 80 616 46 q 552 42 591 59 q 474 14 514 26 q 397 -3 434 3 q 335 -10 359 -10 q 227 6 271 -10 q 156 51 184 22 q 116 121 128 80 q 104 211 104 161 q 106 254 104 231 q 112 300 109 276 l 185 800 l 185 798 q 190 849 190 824 q 185 901 190 880 q 172 936 180 923 l 342 936 q 311 884 326 918 q 289 803 297 851 l 214 308 z "},"V":{"ha":880,"x_min":145,"x_max":951,"o":"m 457 163 l 777 795 q 800 852 795 827 q 805 894 805 876 q 803 916 805 907 q 798 934 801 926 q 876 935 840 934 q 951 936 913 936 q 911 888 934 918 q 860 808 888 859 q 698 494 765 619 q 585 281 632 369 q 506 129 538 193 q 447 0 474 65 l 367 0 q 343 142 356 75 q 311 296 330 209 q 265 503 292 383 q 200 805 238 623 q 173 885 188 852 q 145 936 158 918 l 345 936 q 324 884 332 918 q 326 798 316 849 l 457 163 z "},"W":{"ha":1223,"x_min":140,"x_max":1307,"o":"m 388 184 q 469 366 426 270 q 556 559 512 461 q 643 752 600 656 q 725 936 686 848 l 768 936 l 876 185 q 939 332 905 254 q 1006 491 972 410 q 1073 649 1039 572 q 1135 797 1106 726 l 1135 795 q 1154 853 1149 829 q 1159 896 1159 878 q 1156 932 1159 916 q 1234 934 1199 932 q 1307 936 1269 936 q 1231 808 1272 897 q 1088 485 1148 619 q 986 259 1028 351 q 918 113 943 168 q 878 32 892 59 l 864 0 l 787 0 q 786 13 787 5 q 782 44 785 21 q 773 110 779 67 q 755 228 766 153 q 727 414 744 303 q 686 685 710 525 q 578 441 624 543 q 496 260 532 338 q 434 121 461 182 q 383 0 407 59 l 303 0 q 287 120 297 51 q 261 284 276 188 q 226 508 246 380 q 182 803 206 635 q 162 881 174 848 q 140 934 150 915 q 193 934 169 934 q 239 935 217 934 q 285 936 262 936 q 337 936 308 936 q 317 881 324 916 q 316 800 310 846 l 388 184 z "},"X":{"ha":876,"x_min":26,"x_max":924,"o":"m 554 509 l 736 97 l 736 99 q 769 40 752 64 q 805 0 787 16 l 576 0 q 586 22 581 8 q 591 49 591 37 q 588 75 591 61 q 578 109 586 89 l 450 394 l 225 112 q 187 43 193 70 q 187 0 180 16 l 26 0 q 76 38 48 14 q 129 96 104 62 l 129 94 l 420 460 l 257 840 l 257 837 q 223 896 243 872 q 187 936 204 920 l 413 936 q 402 888 402 920 q 405 860 402 875 q 415 825 407 845 l 527 573 l 725 822 q 763 892 757 864 q 765 936 769 920 l 924 936 q 875 898 902 921 q 822 843 848 875 l 554 509 z "},"Y":{"ha":793,"x_min":137,"x_max":875,"o":"m 477 369 l 442 136 l 442 137 q 437 85 437 110 q 442 34 437 56 q 453 0 447 13 l 286 0 q 315 53 300 19 q 338 133 330 86 l 374 366 l 190 837 q 163 892 177 867 q 137 932 148 916 q 238 934 195 932 q 335 936 281 936 q 324 878 324 910 q 327 843 324 856 l 479 474 l 704 824 q 729 886 723 856 q 734 934 734 916 q 807 935 776 934 q 875 936 838 936 q 836 896 857 920 q 792 841 814 873 l 477 369 z "},"Z":{"ha":715,"x_min":3,"x_max":792,"o":"m 18 78 q 86 172 37 109 q 202 318 136 235 q 346 497 268 401 q 503 690 425 594 l 635 856 l 265 856 q 182 847 214 856 q 128 821 150 838 q 133 854 131 840 q 138 881 136 868 q 143 906 140 894 q 148 936 145 918 l 792 936 l 781 875 q 731 807 768 854 q 642 694 694 760 q 522 547 589 629 q 380 372 455 465 l 142 80 l 528 80 q 612 89 581 80 q 666 117 643 97 q 659 83 663 97 q 654 56 656 69 q 649 30 651 43 q 643 0 647 18 l 3 0 l 18 78 z "},"[":{"ha":426,"x_min":26,"x_max":492,"o":"m 311 -246 l 26 -246 q 44 -191 34 -227 q 61 -113 54 -155 l 198 800 q 204 858 203 833 q 206 904 206 883 q 206 922 206 916 q 204 936 206 928 l 492 936 l 487 873 q 435 884 466 881 q 354 888 404 888 l 313 888 l 150 -198 l 195 -198 q 273 -196 241 -198 q 324 -192 305 -195 l 311 -246 z "},"\\":{"ha":450,"x_min":148,"x_max":374,"o":"m 302 -247 q 225 360 265 59 q 148 967 185 661 l 222 967 q 298 360 259 661 q 374 -247 337 59 l 302 -247 z "},"]":{"ha":426,"x_min":-2,"x_max":465,"o":"m 5 -190 q 53 -197 24 -196 q 134 -198 83 -198 l 177 -198 l 338 888 l 294 888 q 163 875 200 888 l 176 936 l 465 936 q 446 882 457 916 q 428 803 436 848 l 292 -110 q 283 -212 283 -172 q 283 -231 283 -225 q 284 -246 283 -238 l -2 -246 l 5 -190 z "},"^":{"ha":549,"x_min":59,"x_max":544,"o":"m 544 503 l 477 503 l 356 892 q 239 698 302 801 q 121 503 177 594 l 59 503 q 204 742 136 627 q 348 982 273 857 l 396 982 l 544 503 z "},"_":{"ha":581,"x_min":-10,"x_max":575,"o":"m 575 -144 q 568 -184 572 -166 q 560 -223 564 -203 l -10 -223 l 3 -144 l 575 -144 z "},"`":{"ha":324,"x_min":26,"x_max":236,"o":"m 30 945 q 47 939 32 942 q 81 936 62 937 q 120 933 101 934 q 152 932 139 932 q 179 847 152 896 q 236 761 206 798 l 177 760 q 135 791 161 771 q 84 836 109 811 q 42 888 59 860 q 30 945 26 916 z "},"a":{"ha":647,"x_min":57,"x_max":659,"o":"m 560 115 q 566 45 551 61 q 600 29 581 29 q 564 1 583 8 q 528 -6 544 -6 q 477 13 498 -6 q 457 70 457 32 q 373 10 423 29 q 278 -8 322 -8 q 184 14 227 -8 q 113 77 142 37 q 71 177 85 118 q 62 311 57 236 q 95 450 69 386 q 161 560 121 514 q 250 631 201 605 q 350 656 299 656 q 398 653 372 656 q 447 641 423 650 q 492 618 471 632 q 527 580 512 603 q 533 621 530 608 q 540 645 536 634 l 538 642 q 539 646 538 645 q 540 648 540 647 l 659 648 q 640 607 650 632 q 624 546 631 583 l 560 115 m 168 322 q 174 204 161 252 q 212 125 187 155 q 267 83 236 96 q 330 70 299 70 q 409 93 375 70 q 461 163 444 117 l 517 503 q 463 558 496 538 q 383 578 429 578 q 241 514 303 578 q 168 322 179 450 z "},"b":{"ha":667,"x_min":45,"x_max":648,"o":"m 259 580 q 354 639 310 621 q 444 656 399 656 q 532 633 493 656 q 596 568 570 610 q 635 467 623 525 q 643 337 648 409 q 604 196 635 259 q 528 90 573 134 q 429 23 484 46 q 319 0 375 0 l 45 0 q 65 39 56 14 q 80 101 73 64 l 196 867 q 198 931 201 905 q 190 972 195 956 q 263 979 230 975 q 332 985 295 982 q 302 886 311 953 l 259 580 m 538 324 q 534 444 543 396 q 504 522 525 492 q 451 565 482 552 q 382 578 420 578 q 297 552 335 578 q 241 493 259 527 l 179 72 l 292 72 q 375 87 334 72 q 451 133 417 102 q 508 212 485 164 q 538 324 532 259 z "},"c":{"ha":552,"x_min":64,"x_max":565,"o":"m 176 318 q 212 125 163 198 q 361 53 260 53 q 506 107 442 53 q 501 84 503 93 q 498 68 500 75 q 495 53 496 61 q 492 32 493 45 q 427 3 469 16 q 319 -10 385 -10 q 219 9 265 -10 q 138 63 172 27 q 84 150 104 99 q 64 268 64 201 q 64 291 64 279 q 65 314 64 302 q 105 458 73 394 q 181 566 136 522 q 284 634 227 610 q 402 658 342 658 q 494 648 449 658 q 565 627 540 639 q 559 584 562 603 q 552 543 556 565 q 495 578 528 565 q 415 591 461 591 q 251 517 316 591 q 176 318 187 444 z "},"d":{"ha":648,"x_min":48,"x_max":701,"o":"m 51 311 q 85 446 57 383 q 156 556 113 509 q 251 629 198 602 q 359 656 303 656 q 438 647 391 656 q 524 615 485 637 l 562 867 q 567 920 567 892 q 557 972 567 955 q 631 979 599 975 q 701 985 664 982 q 682 943 691 969 q 667 886 672 918 q 609 495 640 694 q 551 104 578 295 q 564 45 544 61 q 608 30 583 29 q 568 -2 592 5 q 525 -8 544 -10 q 470 12 493 -6 q 444 67 447 30 q 346 6 393 21 q 254 -8 299 -8 q 105 61 161 -8 q 48 255 48 131 q 49 283 48 268 q 51 311 49 297 m 155 322 q 152 297 153 310 q 152 271 152 284 q 165 177 152 216 q 200 115 179 139 q 250 81 222 91 q 307 70 278 70 q 390 94 353 70 q 455 152 428 118 l 512 546 q 452 572 487 562 q 386 581 417 581 q 235 516 302 581 q 155 322 168 452 z "},"e":{"ha":603,"x_min":59,"x_max":621,"o":"m 413 656 q 513 641 473 656 q 579 600 554 626 q 612 544 603 575 q 616 479 621 512 q 595 417 611 447 q 547 366 578 388 q 467 329 516 343 q 350 314 418 314 l 176 314 q 181 216 168 263 q 222 132 195 168 q 287 74 249 96 q 370 53 326 53 q 459 67 412 53 q 541 104 506 81 q 536 65 538 77 q 530 32 533 54 q 457 3 508 16 q 342 -10 407 -10 q 227 11 279 -10 q 136 73 174 32 q 78 174 97 113 q 65 314 59 235 q 106 447 73 385 q 187 556 139 509 q 294 629 235 602 q 413 656 353 656 m 410 587 q 335 572 372 587 q 268 527 299 556 q 215 460 238 498 q 182 378 192 421 l 380 378 q 488 406 447 378 q 536 471 528 434 q 535 512 540 492 q 514 550 530 533 q 473 577 498 567 q 410 587 447 587 z "},"f":{"ha":396,"x_min":-81,"x_max":548,"o":"m 439 584 l 286 584 l 187 -78 q 160 -162 180 -123 q 114 -230 140 -201 q 57 -275 88 -259 q -2 -292 27 -292 q -52 -282 -34 -292 q -81 -254 -70 -271 q 26 -192 -21 -243 q 85 -64 73 -140 l 180 584 l 81 584 q 86 618 85 605 q 91 648 88 631 l 193 648 q 203 717 196 680 q 212 785 209 754 q 293 934 230 880 q 436 988 356 988 q 501 982 474 988 q 548 967 528 975 l 535 897 q 457 920 508 920 q 366 891 404 920 q 314 785 327 862 l 297 648 l 447 648 l 439 584 z "},"g":{"ha":597,"x_min":-6,"x_max":688,"o":"m 102 444 q 137 543 110 501 q 203 611 164 584 q 287 651 241 639 q 380 658 334 663 q 457 645 421 655 q 520 627 492 635 q 567 615 546 619 q 610 611 587 611 q 648 615 629 611 q 686 639 667 618 q 687 627 688 632 q 686 615 686 623 q 670 561 683 581 q 640 532 658 541 q 602 528 623 524 q 562 546 581 532 l 557 543 q 583 469 578 512 q 584 401 587 426 q 548 311 575 351 q 482 242 520 270 q 399 200 444 214 q 310 192 354 187 q 276 197 297 193 q 238 208 255 201 q 204 173 216 190 q 188 145 192 156 q 212 107 185 118 q 316 88 238 96 q 433 64 388 83 q 504 18 479 45 q 539 -41 530 -8 q 544 -107 548 -73 q 509 -191 535 -150 q 444 -262 484 -231 q 353 -308 404 -292 q 241 -318 302 -324 q 141 -299 187 -313 q 62 -264 96 -286 q 11 -213 29 -243 q -3 -145 -6 -184 q 8 -99 -2 -118 q 30 -67 18 -80 q 58 -47 43 -54 q 86 -35 73 -40 q 77 -59 81 -48 q 69 -102 69 -83 q 114 -193 72 -155 q 252 -241 156 -231 q 338 -236 300 -246 q 402 -208 375 -227 q 443 -167 428 -190 q 461 -120 458 -144 q 457 -81 463 -101 q 431 -42 450 -61 q 378 -10 412 -24 q 289 10 343 5 q 137 44 188 21 q 93 109 86 67 q 134 176 101 145 q 200 225 168 208 q 118 318 145 260 q 102 444 91 377 m 211 431 q 230 303 200 354 q 316 249 260 252 q 420 286 377 243 q 476 405 463 329 q 459 542 489 492 q 370 600 429 592 q 268 560 313 603 q 211 431 223 516 z "},"h":{"ha":675,"x_min":46,"x_max":635,"o":"m 576 99 q 577 36 570 57 q 599 5 584 14 q 562 -5 578 -2 q 532 -8 546 -8 q 479 25 490 -8 q 473 96 468 57 l 524 428 q 509 538 533 496 q 434 580 485 580 q 342 560 388 580 q 246 504 295 541 l 184 104 q 181 40 179 65 q 190 0 184 14 l 46 0 q 66 40 57 16 q 81 101 75 64 l 196 867 q 198 931 201 905 q 190 972 195 956 q 263 979 230 975 q 334 985 297 982 q 315 943 326 971 q 302 886 305 916 l 254 568 q 375 631 311 607 q 485 656 439 656 q 558 644 528 656 q 604 612 587 632 q 628 566 621 592 q 635 511 635 540 q 633 477 635 495 q 627 442 631 458 l 576 99 l 576 99 z "},"i":{"ha":300,"x_min":77,"x_max":335,"o":"m 187 99 q 188 36 180 57 q 208 5 195 14 q 144 -8 166 -8 q 89 24 102 -8 q 85 96 77 56 l 148 535 l 148 533 q 153 584 153 559 q 145 640 153 619 q 218 647 185 643 q 287 655 251 651 q 270 611 279 639 q 257 556 260 584 l 187 99 m 171 881 q 203 935 176 916 q 263 950 230 953 q 315 918 295 945 q 332 857 335 891 q 299 805 326 822 q 238 793 271 789 q 184 821 204 797 q 171 881 164 846 z "},"j":{"ha":300,"x_min":-65,"x_max":346,"o":"m 177 -51 q 152 -132 169 -94 q 114 -200 136 -169 q 67 -250 93 -230 q 14 -276 42 -270 q -65 -259 -43 -286 q 27 -190 -6 -239 q 70 -65 61 -140 l 161 535 q 164 601 166 576 q 156 639 161 626 l 297 653 q 280 611 289 637 q 268 556 271 584 l 177 -51 m 182 881 q 214 936 187 918 q 276 950 241 955 l 275 950 q 327 920 308 945 q 342 857 346 894 q 311 805 338 821 q 251 793 284 789 q 196 821 217 797 q 182 881 176 845 z "},"k":{"ha":611,"x_min":45,"x_max":611,"o":"m 449 249 q 513 102 482 158 q 589 34 544 46 q 548 4 567 13 q 511 -5 528 -5 q 470 7 489 -5 q 437 38 452 19 q 408 80 421 56 q 385 128 394 104 l 385 126 l 294 350 l 208 263 q 196 184 203 225 q 184 104 188 144 q 183 42 180 67 q 190 0 185 16 l 45 0 q 65 40 54 14 q 81 99 75 65 l 195 868 q 197 933 201 907 q 188 974 193 959 q 263 980 230 977 q 334 987 297 983 q 315 945 326 972 q 302 888 305 918 l 220 350 l 433 560 q 467 607 458 583 q 476 648 476 631 l 611 648 q 568 620 589 635 q 535 589 548 605 l 536 589 l 380 433 l 449 249 l 449 249 z "},"l":{"ha":300,"x_min":75,"x_max":335,"o":"m 185 99 q 186 35 179 57 q 206 5 193 13 q 171 -6 187 -3 q 142 -8 155 -8 q 88 24 101 -8 q 83 96 75 56 q 140 482 110 284 q 198 868 171 680 q 200 933 203 907 q 192 974 196 959 q 265 980 231 977 q 335 987 299 983 q 318 945 327 972 q 305 888 308 918 l 185 99 l 185 99 z "},"m":{"ha":987,"x_min":57,"x_max":975,"o":"m 916 99 q 917 36 910 57 q 937 5 924 14 q 873 -8 896 -8 q 819 25 832 -8 q 813 96 806 57 l 864 431 q 848 540 873 500 q 771 576 822 581 q 709 561 738 573 q 659 532 680 549 q 623 496 637 516 q 608 458 610 477 l 556 104 q 555 42 552 67 q 562 0 557 16 l 418 0 q 437 40 428 16 q 453 101 445 64 l 501 431 q 486 540 511 500 q 409 575 461 580 q 324 548 358 570 q 251 485 291 527 l 195 104 q 191 77 192 91 q 190 53 190 62 q 192 24 190 37 q 196 3 193 11 q 125 2 156 3 q 57 0 94 0 q 76 42 67 16 q 89 101 85 67 l 156 543 q 159 607 161 581 q 152 648 156 632 l 270 648 q 269 615 270 631 q 263 565 268 600 q 369 633 318 616 q 466 655 420 650 q 566 627 532 658 q 613 562 600 597 q 670 612 642 594 q 726 639 698 631 q 779 651 754 648 q 827 655 805 653 q 899 648 870 658 q 944 621 928 639 q 968 578 961 603 q 975 524 975 552 q 974 490 975 508 q 969 455 972 473 l 916 99 l 916 99 z "},"n":{"ha":675,"x_min":57,"x_max":650,"o":"m 535 433 q 523 542 548 503 q 442 576 498 581 q 347 548 394 572 q 252 485 300 525 q 224 295 238 394 q 198 104 211 195 q 193 77 195 91 q 192 53 192 62 q 194 24 192 37 q 200 3 196 11 q 126 2 163 3 q 57 0 89 2 q 77 39 69 14 q 93 101 86 64 l 160 543 q 162 607 164 581 q 155 648 160 632 l 273 648 q 271 610 273 637 q 265 560 268 583 q 394 628 335 607 q 500 656 453 650 q 616 623 583 661 q 650 525 650 584 q 645 460 650 493 l 587 99 q 589 37 581 59 q 610 5 597 14 q 544 -8 573 -8 q 491 24 503 -8 q 485 96 479 56 l 535 433 l 535 433 z "},"o":{"ha":661,"x_min":61,"x_max":656,"o":"m 67 326 q 101 470 72 407 q 172 576 129 533 q 271 639 216 618 q 385 658 326 659 q 495 630 444 655 q 583 560 546 605 q 638 451 619 516 q 651 305 656 386 q 619 169 647 228 q 548 69 592 110 q 449 8 504 29 q 335 -10 394 -13 q 223 17 275 -8 q 136 85 172 42 q 80 189 99 128 q 67 326 61 251 m 174 322 q 210 129 166 204 q 340 51 254 54 q 415 69 380 49 q 477 122 450 88 q 520 204 503 156 q 541 308 536 251 q 507 510 552 433 q 378 591 461 587 q 238 523 294 594 q 174 322 182 452 z "},"p":{"ha":672,"x_min":27,"x_max":672,"o":"m 667 337 q 636 194 663 257 q 570 87 610 131 q 479 20 530 43 q 372 -3 428 -3 q 290 6 340 -3 q 198 38 239 16 l 168 -160 q 164 -186 164 -172 q 163 -211 163 -200 q 171 -268 163 -247 q 97 -280 131 -275 q 27 -294 64 -286 q 44 -252 35 -276 q 59 -196 53 -228 l 171 543 q 173 606 176 580 q 166 648 171 632 l 286 648 q 286 619 286 637 q 279 576 286 600 q 374 637 329 618 q 465 656 418 656 q 554 634 514 656 q 621 570 594 611 q 660 469 648 528 q 667 337 672 410 m 564 324 q 558 445 568 396 q 527 523 548 493 q 475 565 506 552 q 405 578 444 578 q 326 553 359 578 q 265 495 292 528 l 208 105 q 274 81 235 91 q 343 72 313 72 q 422 87 385 72 q 490 133 460 102 q 540 212 520 164 q 564 324 559 259 z "},"q":{"ha":656,"x_min":81,"x_max":683,"o":"m 402 -292 q 419 -252 410 -276 q 434 -196 428 -228 l 473 61 q 385 2 429 13 q 295 -8 340 -8 q 204 14 244 -8 q 135 77 163 37 q 94 177 107 118 q 88 311 81 236 q 120 450 94 386 q 184 560 145 514 q 270 631 222 605 q 370 656 318 656 q 470 639 417 656 q 554 581 524 623 q 560 625 557 613 q 567 647 564 637 l 567 648 l 683 648 q 665 607 674 632 q 648 546 656 583 l 543 -161 l 543 -160 q 540 -185 540 -172 q 540 -211 540 -198 q 549 -268 540 -249 l 402 -292 m 192 322 q 198 203 185 251 q 234 125 211 155 q 287 83 257 96 q 350 70 318 70 q 433 99 396 70 q 489 158 471 128 l 538 501 q 484 558 519 538 q 404 578 449 578 q 263 514 324 578 q 192 322 203 450 z "},"r":{"ha":437,"x_min":57,"x_max":496,"o":"m 469 656 q 482 656 476 656 q 496 655 489 656 q 492 603 495 627 q 487 557 490 580 q 415 580 457 580 q 330 559 364 580 q 259 506 295 538 l 196 104 q 194 44 192 69 q 201 3 196 19 q 127 2 164 3 q 57 0 89 2 q 77 39 69 14 q 93 101 86 64 l 161 543 q 164 604 166 580 q 156 645 161 629 q 218 647 193 645 q 275 648 243 648 q 274 611 275 635 q 267 567 273 587 q 371 642 319 627 q 469 656 423 656 z "},"s":{"ha":520,"x_min":54,"x_max":517,"o":"m 367 145 q 340 212 374 182 q 265 271 307 243 q 209 313 238 291 q 158 362 180 335 q 124 423 136 390 q 117 496 112 457 q 207 620 134 583 q 374 658 279 658 q 455 648 418 658 q 517 627 492 639 l 503 546 q 445 576 481 565 q 369 587 410 587 q 271 571 313 587 q 222 506 230 554 q 227 472 219 489 q 249 440 235 455 q 283 410 263 425 q 324 382 303 396 q 382 340 353 362 q 433 291 410 318 q 467 230 455 263 q 473 153 479 196 q 442 77 466 109 q 382 27 418 46 q 302 -1 346 8 q 209 -10 257 -10 q 121 0 163 -10 q 54 21 80 10 l 62 120 q 135 77 91 96 q 222 59 179 59 q 321 77 283 59 q 367 145 359 96 z "},"t":{"ha":455,"x_min":77,"x_max":458,"o":"m 449 584 l 279 584 l 225 220 q 243 108 216 145 q 324 70 271 70 q 377 79 350 70 q 426 104 404 88 l 415 40 q 350 6 388 21 q 257 -8 313 -8 q 148 34 182 -8 q 115 147 115 75 q 120 206 115 172 l 179 584 l 77 584 q 81 618 80 605 q 86 648 83 631 l 187 648 l 209 789 q 266 804 236 793 q 318 827 295 814 l 292 648 l 458 648 l 449 584 z "},"u":{"ha":682,"x_min":101,"x_max":688,"o":"m 211 220 q 225 110 201 152 q 300 69 249 69 q 394 87 348 69 q 490 142 439 105 l 551 543 q 553 607 556 581 q 546 648 551 632 l 688 648 q 669 607 678 632 q 653 546 659 583 l 587 104 q 585 41 583 67 q 592 0 587 14 l 473 0 q 473 28 473 11 q 482 77 474 45 q 424 34 455 51 q 362 8 393 18 q 302 -5 330 -2 q 249 -8 273 -8 q 177 3 206 -8 q 132 34 148 14 q 108 81 115 54 q 101 137 101 107 q 102 172 101 155 q 107 206 104 188 l 156 543 l 156 541 q 161 592 161 570 q 159 624 161 611 q 153 648 156 637 l 295 648 q 276 607 286 632 q 262 546 267 583 l 211 220 z "},"v":{"ha":627,"x_min":105,"x_max":675,"o":"m 257 0 l 142 548 q 124 607 134 581 q 105 648 113 632 l 254 648 q 249 626 251 639 q 247 595 247 613 q 252 541 247 572 l 337 139 q 386 234 359 182 q 439 338 412 286 q 492 442 466 391 q 540 538 517 493 q 566 606 562 580 q 568 648 570 632 l 675 648 q 647 607 663 632 q 615 551 631 583 q 536 397 572 466 q 466 263 500 327 q 399 135 433 198 q 327 0 366 72 l 257 0 z "},"w":{"ha":948,"x_min":102,"x_max":1004,"o":"m 603 0 q 599 25 602 8 q 588 86 597 42 q 564 215 580 131 q 524 441 549 299 l 310 0 l 238 0 q 231 57 236 19 q 213 158 225 94 q 183 318 201 222 q 139 548 164 413 q 121 607 131 581 q 102 648 112 632 l 260 648 q 249 605 254 631 q 251 543 244 580 l 316 131 l 556 648 l 594 648 l 678 131 l 867 538 q 889 605 884 578 q 892 648 894 632 l 1004 648 q 942 551 977 619 l 672 0 l 603 0 z "},"x":{"ha":613,"x_min":34,"x_max":645,"o":"m 385 340 l 493 96 q 525 40 509 64 q 554 2 541 16 q 470 1 508 2 q 394 0 433 0 q 398 44 399 16 q 378 109 396 72 l 314 249 l 209 113 q 169 45 177 70 q 164 2 161 19 q 97 1 128 2 q 34 0 67 0 q 121 93 70 29 l 287 307 q 233 429 260 364 q 179 551 206 493 q 148 609 163 586 q 120 648 133 632 l 278 648 q 275 603 273 632 q 295 538 278 575 l 358 398 l 465 535 q 504 603 496 576 q 508 648 511 631 l 645 648 q 603 609 627 632 q 554 556 580 586 l 385 340 z "},"y":{"ha":626,"x_min":-10,"x_max":686,"o":"m 65 -278 q 22 -258 37 -278 q 11 -211 8 -238 q 75 -210 42 -219 q 143 -175 109 -201 q 210 -105 177 -148 q 271 3 243 -61 l 268 24 q 255 78 263 43 q 231 175 246 113 q 198 327 217 236 q 153 548 179 418 q 135 607 145 583 q 117 648 125 632 l 263 648 q 257 603 257 631 q 265 541 257 578 l 351 139 l 552 538 q 578 610 575 586 q 580 647 581 634 q 635 647 610 647 q 686 648 659 648 q 624 551 659 619 q 521 346 565 433 q 444 194 477 259 q 386 83 410 129 q 343 2 362 37 q 260 -132 300 -78 q 186 -217 220 -185 q 121 -263 152 -249 q 65 -278 91 -278 m 14 -193 q 11 -211 11 -203 l -10 -204 l 14 -193 z "},"z":{"ha":504,"x_min":13,"x_max":557,"o":"m 24 61 l 305 433 l 418 583 l 236 583 q 154 577 185 583 q 101 559 123 572 l 117 648 l 557 648 q 554 623 556 632 q 551 602 552 615 q 504 538 538 581 q 429 440 471 495 q 341 324 388 385 q 253 211 294 263 q 181 118 212 158 q 139 64 150 78 l 335 64 q 419 67 388 64 q 473 86 450 70 l 457 0 l 13 0 l 24 61 z "},"{":{"ha":445,"x_min":61,"x_max":512,"o":"m 187 -85 q 196 -169 179 -140 q 262 -198 214 -198 q 307 -197 286 -198 q 345 -193 329 -196 l 332 -246 l 179 -246 q 138 -238 158 -246 q 104 -213 118 -230 q 83 -172 89 -196 q 81 -113 77 -147 l 133 228 q 129 254 133 239 q 118 282 126 268 q 97 306 110 295 q 61 319 83 316 q 65 342 62 329 q 69 367 67 356 q 113 380 94 369 q 142 405 131 391 q 159 433 153 418 q 166 460 164 449 l 217 800 q 241 855 225 830 q 277 897 257 880 q 318 925 297 915 q 359 936 340 936 l 512 936 q 509 906 511 920 q 506 880 508 892 q 420 888 490 888 q 355 862 383 888 q 314 763 327 837 l 270 469 q 258 436 268 455 q 232 400 247 417 q 198 370 217 383 q 160 354 179 358 l 158 346 q 216 303 193 337 q 238 246 238 270 l 187 -85 z "},"|":{"ha":249,"x_min":27,"x_max":279,"o":"m 27 -247 l 209 967 l 279 967 l 97 -247 l 27 -247 z "},"}":{"ha":445,"x_min":-14,"x_max":431,"o":"m 228 243 q 261 301 231 271 q 335 342 291 330 l 335 350 q 303 366 318 353 q 279 395 289 378 q 265 430 270 412 q 263 463 260 449 q 284 612 273 538 q 305 760 295 686 l 305 758 q 295 861 318 835 q 233 888 273 888 q 181 887 200 888 q 150 883 163 886 q 163 936 158 910 l 316 936 q 355 928 335 936 q 390 903 375 920 q 413 861 405 886 q 415 803 420 837 l 364 463 q 363 437 362 452 q 371 409 364 423 q 392 383 378 394 q 431 369 405 372 q 428 344 428 354 q 426 321 428 334 q 386 307 402 318 q 357 283 369 297 q 338 255 345 270 q 330 231 332 241 l 278 -110 q 255 -165 270 -140 q 219 -208 239 -190 q 176 -236 198 -227 q 134 -246 153 -246 l -14 -246 l -10 -192 q 27 -196 6 -195 q 75 -198 48 -198 q 146 -170 123 -198 q 179 -89 169 -142 l 228 243 z "},"~":{"ha":536,"x_min":57,"x_max":559,"o":"m 413 369 q 338 382 372 369 q 273 410 303 394 q 225 430 246 421 q 182 439 204 439 q 132 425 158 439 q 93 369 105 410 l 57 369 q 114 467 75 436 q 200 498 153 498 q 287 485 249 498 q 353 455 324 471 q 395 437 375 444 q 436 429 415 429 q 484 445 458 429 q 522 498 509 461 l 559 498 q 498 401 536 433 q 413 369 460 369 z "},"¡":{"ha":297,"x_min":-3,"x_max":278,"o":"m 126 -292 l -3 -292 l 21 -166 l 145 388 l 180 388 l 144 -161 l 126 -292 m 273 572 q 241 518 268 535 q 180 504 214 501 l 182 504 q 129 534 148 509 q 113 595 109 559 q 145 647 118 631 q 206 659 172 663 l 204 659 q 257 630 236 655 q 273 572 278 605 z "},"¢":{"ha":552,"x_min":61,"x_max":581,"o":"m 174 314 q 169 255 169 286 q 216 108 169 163 q 350 53 263 53 q 435 67 391 53 q 514 109 479 81 q 509 85 511 94 q 506 68 508 75 q 503 53 504 61 q 500 32 501 45 q 418 3 473 16 q 300 -10 364 -10 q 205 7 249 -10 q 129 56 161 24 q 79 135 97 88 q 61 243 61 182 q 62 275 61 255 q 67 311 64 294 q 115 449 80 386 q 198 556 150 511 q 303 625 246 600 q 417 650 359 650 q 509 641 463 650 q 581 621 556 632 q 575 579 578 599 q 568 538 572 559 q 507 572 543 559 q 426 584 471 584 q 262 512 330 584 q 174 314 193 439 m 444 790 l 495 790 l 278 -140 l 225 -140 l 444 790 z "},"£":{"ha":635,"x_min":48,"x_max":677,"o":"m 99 461 l 196 461 q 173 544 184 501 q 163 624 163 586 q 168 683 163 651 q 203 789 176 741 q 271 872 230 837 q 363 928 311 908 q 473 948 415 948 q 599 936 549 948 q 677 905 648 923 l 663 809 q 592 857 635 840 q 492 875 549 875 q 347 821 399 875 q 283 690 295 768 q 278 627 278 658 q 286 543 278 584 q 303 461 294 501 l 516 461 l 508 399 l 314 399 q 317 351 316 375 q 314 310 318 327 q 303 259 310 283 q 283 208 297 235 q 245 151 268 182 q 187 80 222 120 l 434 80 q 513 88 484 80 q 565 113 543 96 q 558 79 560 93 q 553 54 556 65 q 549 31 551 43 q 543 0 548 19 l 48 0 q 53 30 51 19 q 59 59 56 42 q 170 178 133 117 q 216 300 208 239 q 218 349 219 322 q 214 399 217 375 l 89 399 l 99 461 z "},"¥":{"ha":793,"x_min":137,"x_max":875,"o":"m 350 429 l 190 837 q 163 892 177 867 q 137 932 148 916 q 238 934 195 932 q 335 936 281 936 q 324 878 324 910 q 327 843 324 856 l 479 474 l 704 824 q 729 886 723 856 q 734 934 734 916 q 807 935 776 934 q 875 936 838 936 q 836 896 857 920 q 792 841 814 873 l 517 429 l 678 429 q 674 397 675 409 q 669 367 672 385 l 477 367 l 461 265 l 653 265 q 647 234 648 247 q 643 203 647 220 l 452 203 q 447 171 450 190 q 442 137 444 152 q 438 111 439 125 q 437 85 437 97 q 442 34 437 56 q 453 0 447 13 l 286 0 q 315 53 300 19 q 338 133 330 86 l 350 203 l 147 203 l 156 265 l 361 265 l 374 367 l 172 367 q 177 399 176 386 q 182 429 179 412 l 350 429 z "},"¦":{"ha":249,"x_min":26,"x_max":281,"o":"m 26 -247 l 109 287 l 177 287 q 137 19 155 147 q 97 -247 120 -109 l 26 -247 m 200 434 l 128 434 l 209 967 l 281 967 l 200 434 z "},"§":{"ha":605,"x_min":48,"x_max":613,"o":"m 370 59 q 346 135 378 97 q 259 209 314 172 q 188 255 225 231 q 122 305 152 278 q 74 366 93 332 q 61 441 56 399 q 81 497 67 469 q 118 548 96 525 q 169 588 140 572 q 231 610 198 605 q 185 681 196 645 q 177 758 174 717 q 214 836 187 801 q 279 895 241 870 q 363 932 318 920 q 455 945 409 945 q 534 937 501 945 q 589 918 567 929 l 576 852 q 518 880 554 868 q 445 892 482 892 q 391 884 418 892 q 342 860 364 875 q 306 827 321 846 q 287 787 291 808 q 293 746 284 768 q 318 703 302 725 q 358 663 335 682 q 409 627 382 643 q 480 586 442 607 q 548 540 517 565 q 595 485 578 516 q 608 413 613 453 q 588 354 602 383 q 553 299 575 324 q 502 258 532 275 q 437 235 473 241 q 479 162 474 198 q 479 85 484 126 q 443 4 471 40 q 376 -57 415 -32 q 291 -94 337 -81 q 196 -107 244 -107 q 112 -97 152 -107 q 48 -75 72 -86 l 62 2 q 129 -38 89 -21 q 212 -54 169 -54 q 318 -21 273 -54 q 370 59 362 13 m 517 377 q 507 419 520 399 q 470 458 493 439 q 417 496 447 477 q 356 532 386 514 l 300 564 q 251 568 276 572 q 207 553 227 565 q 172 522 187 541 q 155 481 158 503 q 165 439 152 460 q 202 398 179 418 q 255 358 225 378 q 318 316 286 337 q 344 300 330 308 q 369 284 358 292 q 419 278 394 273 q 465 297 444 283 q 500 333 485 311 q 517 377 514 354 z "},"¨":{"ha":522,"x_min":131,"x_max":520,"o":"m 136 851 q 165 912 142 889 q 217 934 188 934 q 256 911 241 934 q 268 856 271 888 q 240 799 263 821 q 190 777 217 777 q 147 797 163 777 q 136 852 131 817 l 136 851 m 385 851 q 414 912 391 889 q 466 934 437 934 q 505 911 490 934 q 517 856 520 888 q 489 799 512 821 q 439 777 466 777 q 396 797 412 777 q 385 852 380 817 l 385 851 z "},"©":{"ha":943,"x_min":70,"x_max":958,"o":"m 77 460 q 144 667 94 576 q 263 821 193 758 q 416 916 332 883 q 587 948 500 948 q 737 923 669 948 q 853 848 805 897 q 930 727 902 798 q 958 564 958 656 q 955 516 958 541 q 950 463 953 490 q 884 271 932 358 q 766 121 835 184 q 614 25 698 59 q 439 -10 530 -10 q 294 17 361 -10 q 177 93 227 43 q 99 212 128 142 q 70 372 70 283 q 72 415 70 393 q 77 460 73 437 m 144 463 q 139 423 140 442 q 137 383 137 404 q 160 243 137 307 q 223 136 182 180 q 322 68 263 93 q 453 43 382 43 q 603 75 533 43 q 730 163 674 107 q 826 295 787 219 q 881 460 865 370 q 887 508 884 484 q 889 556 889 533 q 805 802 889 714 q 576 891 722 891 q 425 861 496 891 q 295 777 353 832 q 199 642 238 722 q 144 463 160 562 m 367 468 q 362 410 362 436 q 403 278 362 324 q 511 231 444 231 q 576 240 543 231 q 637 268 610 249 l 627 212 q 489 182 570 182 q 410 198 447 182 q 346 243 374 214 q 303 314 319 271 q 287 409 287 356 q 292 463 287 434 q 330 588 302 533 q 399 681 359 643 q 487 738 439 718 q 581 758 535 758 q 655 751 626 758 q 702 734 685 744 l 693 674 q 646 698 675 688 q 578 707 616 707 q 441 646 496 707 q 367 468 385 584 z "},"ª":{"ha":444,"x_min":77,"x_max":460,"o":"m 385 809 q 369 892 393 862 q 292 921 345 921 q 225 912 255 921 q 172 888 195 902 l 179 937 q 240 953 203 945 q 313 961 278 961 q 419 925 378 961 q 449 805 460 889 l 413 565 l 413 567 q 413 495 402 520 q 374 494 388 495 q 337 493 359 493 l 337 496 q 336 508 337 500 q 338 530 335 517 q 270 497 308 508 q 193 487 231 487 q 108 520 139 487 q 85 605 77 552 q 119 680 91 650 q 188 730 147 710 q 279 760 230 750 q 378 771 329 769 l 385 809 m 152 618 q 173 551 145 572 q 241 530 201 530 q 299 542 271 530 q 350 575 327 554 l 372 739 q 302 732 338 739 q 234 710 265 725 q 180 673 203 696 q 152 618 156 650 z "},"«":{"ha":777,"x_min":85,"x_max":795,"o":"m 453 674 q 451 653 452 661 q 449 639 450 645 q 448 625 449 632 q 445 607 447 618 l 190 423 l 391 241 q 385 204 388 220 q 378 169 382 187 l 85 391 q 90 422 88 409 q 96 452 93 436 l 453 674 m 795 674 q 793 653 793 661 q 791 639 792 645 q 789 625 790 632 q 787 607 789 618 l 532 423 l 733 241 q 726 204 730 220 q 720 169 723 187 l 426 391 q 433 422 429 409 q 439 452 436 436 l 795 674 z "},"¬":{"ha":675,"x_min":115,"x_max":648,"o":"m 126 479 l 648 479 q 629 338 637 404 q 610 200 621 273 l 541 200 l 570 399 l 115 399 l 126 479 z "},"­":{"ha":525,"x_min":99,"x_max":487,"o":"m 115 380 l 487 380 q 479 339 484 358 q 471 302 474 321 l 99 302 l 115 380 z "},"®":{"ha":943,"x_min":70,"x_max":958,"o":"m 77 460 q 144 667 94 576 q 263 821 193 758 q 416 916 332 883 q 587 948 500 948 q 737 923 669 948 q 853 848 805 897 q 930 727 902 798 q 958 564 958 656 q 955 516 958 541 q 950 463 953 490 q 884 271 932 358 q 766 121 835 184 q 614 25 698 59 q 439 -10 530 -10 q 294 17 361 -10 q 177 93 227 43 q 99 212 128 142 q 70 372 70 283 q 72 415 70 393 q 77 460 73 437 m 144 463 q 139 423 140 442 q 137 383 137 404 q 160 243 137 307 q 223 136 182 180 q 322 68 263 93 q 453 43 382 43 q 603 75 533 43 q 730 163 674 107 q 826 295 787 219 q 881 460 865 370 q 887 508 884 484 q 889 556 889 533 q 805 802 889 714 q 576 891 722 891 q 425 861 496 891 q 295 777 353 832 q 199 642 238 722 q 144 463 160 562 m 420 431 l 393 267 q 389 220 390 238 q 390 192 388 203 q 348 191 366 192 q 308 188 330 190 q 327 263 321 216 l 390 674 q 394 752 398 726 l 512 752 q 641 714 594 752 q 675 591 688 675 q 637 494 669 538 q 562 439 605 450 l 631 241 q 642 210 637 222 q 653 188 647 198 l 559 188 q 548 252 565 209 l 548 251 l 482 431 l 420 431 m 458 704 l 426 476 l 463 476 q 521 486 496 476 q 561 513 546 496 q 585 549 576 530 q 597 586 594 568 q 597 629 600 608 q 583 667 594 650 q 552 694 573 683 q 501 704 532 704 l 458 704 z "},"°":{"ha":468,"x_min":86,"x_max":490,"o":"m 99 741 q 180 904 115 846 q 326 961 244 961 q 396 947 364 961 q 450 904 428 932 q 481 836 473 876 q 484 744 490 795 q 454 658 476 696 q 402 592 433 619 q 334 551 372 565 q 257 536 297 536 q 133 591 180 536 q 99 741 86 647 m 161 744 q 179 629 150 677 q 268 581 208 581 q 368 628 327 581 q 420 741 409 675 q 402 864 431 816 q 314 913 374 913 q 260 900 286 913 q 215 863 235 886 q 181 809 195 840 q 161 744 168 779 z "},"±":{"ha":686,"x_min":51,"x_max":690,"o":"m 484 789 l 445 532 l 690 532 q 682 491 686 509 q 675 452 678 473 l 431 452 q 413 324 423 393 q 394 195 404 255 l 324 195 l 362 452 l 117 452 q 124 492 120 474 q 131 532 128 511 l 375 532 q 394 659 383 592 q 413 789 404 726 l 484 789 m 619 78 l 610 0 l 51 0 q 57 40 54 24 q 62 78 59 56 l 619 78 z "},"²":{"ha":338,"x_min":61,"x_max":366,"o":"m 359 843 q 345 803 356 824 q 307 747 334 782 q 231 658 279 712 q 104 516 182 603 l 260 516 q 291 516 279 516 q 313 522 303 517 q 308 502 310 504 q 305 492 307 500 l 61 492 q 64 505 62 500 q 67 517 65 511 q 117 576 94 549 q 163 627 139 602 q 267 750 223 696 q 318 841 311 805 q 300 899 321 870 q 228 928 279 928 q 147 907 179 928 q 149 917 148 915 q 150 920 150 920 q 151 922 150 921 q 152 929 152 923 q 193 943 169 937 q 254 948 217 948 q 337 918 308 948 q 359 841 366 888 l 359 843 z "},"³":{"ha":338,"x_min":77,"x_max":364,"o":"m 327 611 q 272 519 318 556 q 171 482 227 482 q 113 487 136 482 q 77 500 89 492 l 81 530 q 163 504 109 504 q 243 534 211 504 q 283 603 275 564 q 283 643 286 624 q 268 678 279 663 q 235 703 257 693 q 177 715 212 714 l 158 715 q 160 726 158 722 q 163 734 161 731 l 185 734 q 283 768 254 736 q 318 840 311 800 q 300 897 321 868 q 228 926 279 926 q 184 920 204 926 q 145 904 163 913 q 148 915 147 912 q 148 919 148 918 q 149 921 148 920 q 150 929 150 923 q 194 943 168 937 q 254 948 220 948 q 335 916 307 948 q 361 840 364 884 q 354 811 358 827 q 338 780 350 795 q 307 750 327 765 q 251 725 286 734 q 298 700 281 715 q 322 669 314 685 q 329 638 329 653 q 327 611 329 623 z "},"´":{"ha":324,"x_min":188,"x_max":484,"o":"m 358 932 q 332 890 351 915 q 288 839 313 865 q 236 789 263 813 q 188 749 209 765 l 278 761 q 333 794 300 774 q 397 839 366 814 q 453 891 428 864 q 482 945 477 918 q 457 939 477 942 q 415 936 437 937 q 358 932 388 934 m 484 947 q 482 945 484 945 q 484 948 484 947 l 484 947 z "},"µ":{"ha":682,"x_min":30,"x_max":693,"o":"m 169 538 q 171 600 174 575 q 163 640 168 626 l 305 640 q 286 601 295 626 q 271 541 276 576 l 222 219 q 235 109 212 150 q 310 67 259 67 q 403 86 356 67 q 496 140 450 105 l 557 538 q 560 600 562 575 q 552 640 557 626 l 693 640 q 674 602 683 626 q 661 541 666 578 l 594 104 q 592 40 589 65 q 600 0 595 14 l 481 0 q 484 42 481 14 q 492 101 487 69 q 368 23 433 54 q 257 -8 303 -8 q 228 -6 244 -8 q 192 0 212 -3 l 164 -176 q 162 -235 160 -211 q 168 -275 164 -260 q 96 -275 131 -275 q 30 -278 61 -276 q 49 -239 40 -263 q 64 -179 57 -216 l 169 538 z "},"¶":{"ha":702,"x_min":105,"x_max":773,"o":"m 564 884 l 394 -239 l 346 -239 l 439 377 l 367 377 q 172 430 238 377 q 105 586 105 484 q 110 645 105 613 q 220 869 134 803 q 457 936 307 936 l 773 936 q 684 348 728 637 q 595 -239 640 59 l 549 -239 l 718 884 l 564 884 z "},"·":{"ha":267,"x_min":104,"x_max":247,"o":"m 109 476 q 138 535 115 512 q 190 557 161 557 q 231 536 216 557 q 241 479 247 514 q 212 421 235 442 q 161 399 188 399 q 119 420 134 399 q 109 476 104 441 z "},"¸":{"ha":337,"x_min":13,"x_max":284,"o":"m 80 -148 q 113 -80 97 -112 q 138 -26 126 -53 q 153 10 150 0 q 179 9 163 10 q 204 5 195 8 q 185 -30 195 -13 q 168 -64 177 -46 q 152 -96 160 -81 q 175 -98 152 -94 q 223 -114 198 -102 q 266 -150 247 -126 q 278 -212 284 -174 q 235 -315 268 -276 q 164 -377 203 -354 q 89 -408 125 -399 q 38 -418 53 -417 l 13 -391 q 99 -367 59 -385 q 162 -324 133 -353 q 200 -246 192 -295 q 196 -197 204 -216 q 172 -168 187 -179 q 136 -152 156 -156 q 96 -148 115 -148 l 80 -148 l 80 -148 z "},"¹":{"ha":337,"x_min":176,"x_max":289,"o":"m 187 873 q 238 903 214 888 q 289 934 262 918 l 279 878 q 255 715 267 797 q 231 552 243 634 l 231 554 q 230 517 228 532 q 235 492 231 503 l 176 492 q 196 549 190 514 l 238 817 q 240 857 239 843 q 236 876 241 872 q 220 880 231 881 q 187 872 209 878 l 187 873 z "},"º":{"ha":501,"x_min":89,"x_max":522,"o":"m 97 715 q 129 819 105 773 q 188 896 153 865 q 263 944 222 928 q 348 961 305 961 q 473 910 423 961 q 522 766 522 859 q 521 743 522 755 q 519 718 520 731 q 487 620 511 664 q 429 546 463 576 q 355 500 396 516 q 271 484 314 484 q 193 500 228 484 q 134 545 158 516 q 100 618 110 575 q 97 715 89 661 m 168 720 q 163 666 163 691 q 194 560 163 599 q 279 520 225 520 q 386 574 340 520 q 447 715 431 627 l 447 712 q 450 741 450 726 q 450 768 450 755 q 421 880 450 840 q 335 921 391 921 q 227 867 273 921 q 168 718 180 813 l 168 720 z "},"»":{"ha":777,"x_min":54,"x_max":765,"o":"m 765 453 q 759 423 761 436 q 754 393 757 410 l 396 171 q 402 207 399 195 q 407 239 404 219 l 661 423 l 460 605 q 466 642 463 624 q 473 677 469 659 l 765 453 m 423 453 q 417 423 420 436 q 410 393 413 410 l 54 171 q 60 207 57 195 q 65 239 62 219 l 319 423 l 118 605 q 125 642 121 624 q 131 677 128 659 l 423 453 z "},"¼":{"ha":837,"x_min":-6,"x_max":852,"o":"m 93 0 l -6 0 q 7 18 -2 6 q 41 59 16 29 q 113 148 65 89 q 242 308 160 206 q 447 564 324 410 q 747 940 570 718 l 852 940 l 93 0 m 163 875 l 275 940 l 297 940 q 283 868 292 937 l 235 551 q 237 498 230 516 q 246 479 244 481 l 137 479 q 152 496 139 479 q 169 551 164 514 l 209 813 q 213 842 212 833 q 209 853 214 851 q 192 852 204 856 q 158 843 180 848 l 163 875 m 774 129 l 712 129 l 702 70 q 705 19 698 37 q 714 0 712 2 l 605 0 q 619 18 607 0 q 637 70 632 35 l 647 129 l 466 129 l 471 172 l 706 460 l 765 460 q 750 390 760 455 l 718 180 q 758 185 739 180 q 789 204 777 190 l 774 129 m 683 380 q 658 342 678 372 q 611 279 637 313 q 562 217 586 246 q 530 182 538 188 l 653 180 l 683 380 z "},"½":{"ha":837,"x_min":-6,"x_max":852,"o":"m 93 0 l -6 0 q 7 18 -2 6 q 41 59 16 29 q 113 148 65 89 q 242 308 160 206 q 447 564 324 410 q 747 940 570 718 l 852 940 l 93 0 m 805 353 q 792 314 801 334 q 758 263 782 294 q 689 181 733 231 q 573 53 645 131 l 691 53 q 742 61 726 53 q 771 86 758 69 l 750 0 l 481 0 l 490 46 q 576 144 533 97 q 651 229 618 190 q 707 300 685 268 q 734 356 730 332 q 720 402 738 380 q 661 425 702 425 q 600 410 627 425 q 560 375 573 396 l 572 449 q 616 466 589 458 q 685 474 643 474 q 779 440 746 474 q 805 353 813 405 m 163 875 l 275 940 l 297 940 q 283 868 292 937 l 235 551 q 237 498 230 516 q 246 479 244 481 l 137 479 q 152 496 139 479 q 169 551 164 514 l 209 813 q 213 842 212 833 q 209 853 214 851 q 192 852 204 856 q 158 843 180 848 l 163 875 z "},"¾":{"ha":837,"x_min":22,"x_max":881,"o":"m 123 0 l 22 0 q 38 18 29 6 q 71 59 46 29 q 142 148 96 89 q 271 308 188 206 q 476 564 353 410 q 776 940 599 718 l 881 940 l 123 0 m 774 129 l 712 129 l 702 70 q 704 19 696 37 q 714 0 712 2 l 605 0 q 619 18 607 0 q 637 70 631 35 l 647 129 l 466 129 l 471 172 l 706 460 l 765 460 q 750 390 760 457 l 718 180 q 758 185 739 180 q 789 204 776 190 l 774 129 m 683 380 q 657 342 678 372 q 610 279 635 313 q 561 217 584 246 q 530 182 538 188 l 653 180 l 683 380 m 359 608 q 339 552 354 578 q 301 508 324 527 q 250 480 278 490 q 193 469 222 469 q 126 477 152 469 q 85 495 101 485 l 96 570 q 126 535 104 549 q 185 520 148 520 q 254 546 227 520 q 287 605 281 572 q 275 666 291 639 q 200 696 260 693 l 164 696 l 171 744 l 208 744 q 292 773 268 746 q 321 833 316 800 q 307 880 324 857 q 249 902 291 902 q 185 888 212 902 q 145 852 158 873 l 158 928 q 204 945 176 937 q 273 953 231 953 q 366 918 332 953 q 393 830 401 883 q 365 769 390 803 q 294 720 340 734 q 329 700 314 714 q 350 670 343 686 q 359 638 358 655 q 359 608 361 621 z "},"¿":{"ha":554,"x_min":104,"x_max":580,"o":"m 496 366 q 473 280 489 318 q 435 212 457 243 q 388 156 413 180 q 338 107 362 131 q 259 20 292 62 q 223 -81 225 -22 q 251 -177 222 -136 q 356 -219 279 -219 q 453 -203 404 -219 q 538 -156 503 -187 q 534 -185 536 -174 q 530 -205 532 -196 q 527 -223 528 -214 q 524 -247 525 -233 q 429 -280 477 -268 q 324 -292 380 -292 q 163 -232 222 -292 q 107 -72 104 -172 q 124 -1 109 -34 q 162 59 139 32 q 213 110 185 86 q 270 158 241 134 q 323 203 297 180 q 372 249 350 225 q 409 301 394 273 q 429 361 425 329 l 436 394 l 501 394 l 496 366 m 575 578 q 543 524 570 541 q 482 511 516 508 l 484 511 q 431 540 452 516 q 415 602 410 565 q 447 653 420 637 q 508 666 474 669 l 506 666 q 560 636 540 661 q 575 578 580 611 z "},"À":{"ha":881,"x_min":10,"x_max":829,"o":"m 613 338 l 275 338 q 229 239 252 292 q 184 140 206 187 q 164 89 169 113 q 158 49 158 65 q 168 2 158 18 q 86 1 123 2 q 10 0 49 0 q 51 49 27 18 q 99 128 75 80 l 420 793 q 437 836 429 811 q 444 883 444 860 q 431 936 444 910 l 611 936 q 631 836 618 894 q 663 686 643 777 q 710 459 683 594 q 774 131 738 324 q 800 53 784 86 q 829 0 816 19 l 629 0 q 646 34 639 13 q 653 86 653 54 q 648 137 653 110 l 613 338 m 311 413 l 597 413 l 512 833 l 311 413 m 314 1232 q 331 1227 316 1229 q 366 1223 346 1224 q 404 1220 385 1221 q 436 1220 423 1220 q 463 1134 436 1183 q 520 1049 490 1086 l 461 1047 q 419 1078 445 1058 q 368 1123 393 1098 q 326 1176 343 1148 q 314 1232 310 1204 z "},"Á":{"ha":881,"x_min":10,"x_max":829,"o":"m 613 338 l 275 338 q 229 239 252 292 q 184 140 206 187 q 164 89 169 113 q 158 49 158 65 q 168 2 158 18 q 86 1 123 2 q 10 0 49 0 q 51 49 27 18 q 99 128 75 80 l 420 793 q 437 836 429 811 q 444 883 444 860 q 431 936 444 910 l 611 936 q 631 836 618 894 q 663 686 643 777 q 710 459 683 594 q 774 131 738 324 q 800 53 784 86 q 829 0 816 19 l 629 0 q 646 34 639 13 q 653 86 653 54 q 648 137 653 110 l 613 338 m 311 413 l 597 413 l 512 833 l 311 413 m 626 1220 q 600 1177 619 1202 q 556 1126 581 1153 q 504 1076 532 1100 q 457 1036 477 1052 l 546 1049 q 601 1082 568 1062 q 665 1126 634 1102 q 721 1178 696 1151 q 750 1232 746 1205 q 726 1227 746 1229 q 683 1223 706 1224 q 626 1220 656 1221 m 752 1234 q 750 1232 752 1232 q 752 1236 752 1234 l 752 1234 z "},"Â":{"ha":881,"x_min":10,"x_max":829,"o":"m 613 338 l 275 338 q 229 239 252 292 q 184 140 206 187 q 164 89 169 113 q 158 49 158 65 q 168 2 158 18 q 86 1 123 2 q 10 0 49 0 q 51 49 27 18 q 99 128 75 80 l 420 793 q 437 836 429 811 q 444 883 444 860 q 431 936 444 910 l 611 936 q 631 836 618 894 q 663 686 643 777 q 710 459 683 594 q 774 131 738 324 q 800 53 784 86 q 829 0 816 19 l 629 0 q 646 34 639 13 q 653 86 653 54 q 648 137 653 110 l 613 338 m 311 413 l 597 413 l 512 833 l 311 413 m 552 1221 l 592 1167 q 648 1090 618 1130 q 706 1017 678 1049 l 648 1017 q 595 1064 627 1034 q 532 1127 564 1094 q 448 1066 490 1097 q 378 1017 405 1034 l 327 1017 q 393 1078 356 1041 q 482 1167 429 1116 l 482 1165 l 536 1221 l 552 1221 z "},"Ã":{"ha":881,"x_min":10,"x_max":829,"o":"m 613 338 l 275 338 q 229 239 252 292 q 184 140 206 187 q 164 89 169 113 q 158 49 158 65 q 168 2 158 18 q 86 1 123 2 q 10 0 49 0 q 51 49 27 18 q 99 128 75 80 l 420 793 q 437 836 429 811 q 444 883 444 860 q 431 936 444 910 l 611 936 q 631 836 618 894 q 663 686 643 777 q 710 459 683 594 q 774 131 738 324 q 800 53 784 86 q 829 0 816 19 l 629 0 q 646 34 639 13 q 653 86 653 54 q 648 137 653 110 l 613 338 m 311 413 l 597 413 l 512 833 l 311 413 m 618 1034 q 568 1042 595 1034 q 522 1066 540 1049 q 484 1093 504 1082 q 442 1103 463 1103 q 394 1087 417 1103 q 359 1034 372 1071 l 324 1034 q 382 1133 343 1102 q 466 1164 420 1164 q 514 1153 487 1164 q 562 1129 541 1143 q 597 1107 578 1116 q 635 1098 616 1098 q 690 1113 666 1098 q 728 1164 714 1127 l 763 1164 q 703 1066 742 1097 q 618 1034 664 1034 z "},"Ä":{"ha":881,"x_min":10,"x_max":829,"o":"m 613 338 l 275 338 q 229 239 252 292 q 184 140 206 187 q 164 89 169 113 q 158 49 158 65 q 168 2 158 18 q 86 1 123 2 q 10 0 49 0 q 51 49 27 18 q 99 128 75 80 l 420 793 q 437 836 429 811 q 444 883 444 860 q 431 936 444 910 l 611 936 q 631 836 618 894 q 663 686 643 777 q 710 459 683 594 q 774 131 738 324 q 800 53 784 86 q 829 0 816 19 l 629 0 q 646 34 639 13 q 653 86 653 54 q 648 137 653 110 l 613 338 m 311 413 l 597 413 l 512 833 l 311 413 m 340 1122 q 370 1183 346 1161 q 421 1205 393 1205 q 461 1182 445 1205 q 473 1127 476 1159 q 445 1070 468 1092 q 394 1049 421 1049 q 351 1069 367 1049 q 340 1124 335 1089 l 340 1122 m 589 1122 q 619 1183 595 1161 q 670 1205 642 1205 q 710 1182 694 1205 q 722 1127 725 1159 q 694 1070 717 1092 q 643 1049 670 1049 q 600 1069 616 1049 q 589 1124 584 1089 l 589 1122 z "},"Å":{"ha":881,"x_min":10,"x_max":829,"o":"m 613 338 l 275 338 q 229 239 252 292 q 184 140 206 187 q 164 89 169 113 q 158 49 158 65 q 168 2 158 18 q 86 1 123 2 q 10 0 49 0 q 51 49 27 18 q 99 128 75 80 l 420 793 q 437 836 429 811 q 444 883 444 860 q 431 936 444 910 l 611 936 q 631 836 618 894 q 663 686 643 777 q 710 459 683 594 q 774 131 738 324 q 800 53 784 86 q 829 0 816 19 l 629 0 q 646 34 639 13 q 653 86 653 54 q 648 137 653 110 l 613 338 m 311 413 l 597 413 l 512 833 l 311 413 m 413 1119 q 457 1197 421 1165 q 533 1229 492 1229 q 598 1199 575 1229 q 615 1124 621 1169 q 600 1082 611 1102 q 572 1046 589 1062 q 536 1023 556 1031 q 495 1014 516 1014 q 431 1045 453 1014 q 413 1121 409 1076 l 413 1119 m 436 1124 q 453 1067 433 1092 q 504 1042 473 1042 q 562 1066 536 1042 q 592 1121 587 1089 q 576 1177 597 1153 q 524 1201 556 1201 q 468 1178 493 1201 q 436 1125 442 1156 l 436 1124 z "},"Æ":{"ha":1084,"x_min":13,"x_max":1159,"o":"m 1017 0 l 540 0 q 570 53 554 19 q 594 133 586 86 l 623 338 l 332 338 l 208 142 q 173 78 182 107 q 164 32 164 49 q 169 2 164 13 q 88 1 123 2 q 13 0 53 0 q 61 49 34 18 q 118 126 88 80 l 546 792 q 574 844 560 813 q 587 902 587 875 q 581 936 587 921 l 1159 936 l 1146 824 q 1017 856 1106 856 l 803 856 l 755 519 l 972 519 q 1030 527 1006 519 q 1071 546 1054 535 q 1060 477 1063 506 q 1052 417 1057 449 q 1016 437 1038 428 q 958 445 995 445 l 741 445 l 688 80 l 905 80 q 984 88 955 80 q 1036 113 1014 96 l 1017 0 m 375 413 l 637 413 l 702 856 l 663 856 l 375 413 z "},"Ç":{"ha":749,"x_min":69,"x_max":809,"o":"m 203 463 q 200 437 201 450 q 200 409 200 423 q 223 267 200 330 q 286 157 246 203 q 378 86 326 112 q 487 61 429 61 q 603 80 548 61 q 702 137 659 99 q 698 109 699 120 q 694 88 696 97 q 691 69 693 78 q 688 45 690 59 q 584 4 640 18 q 455 -10 528 -10 q 307 19 377 -10 q 184 101 236 48 q 100 231 131 155 q 69 402 69 307 q 69 431 69 417 q 72 460 70 445 q 129 667 83 576 q 243 821 176 758 q 394 916 311 883 q 559 948 476 948 q 707 935 640 948 q 809 904 774 921 q 801 852 806 876 q 792 803 795 827 q 700 856 760 837 q 565 875 640 875 q 437 845 498 875 q 326 762 375 816 q 245 632 278 709 q 203 463 212 556 m 354 -148 q 388 -80 372 -112 q 413 -26 401 -53 q 428 10 425 0 q 453 9 437 10 q 479 5 469 8 q 460 -30 469 -13 q 443 -64 452 -46 q 426 -96 434 -81 q 449 -98 426 -94 q 497 -114 473 -102 q 540 -150 522 -126 q 552 -212 559 -174 q 510 -315 543 -276 q 438 -377 477 -354 q 363 -408 399 -399 q 313 -418 327 -417 l 287 -391 q 374 -367 334 -385 q 437 -324 407 -353 q 474 -246 466 -295 q 470 -197 479 -216 q 446 -168 461 -179 q 410 -152 431 -156 q 370 -148 390 -148 l 354 -148 l 354 -148 z "},"È":{"ha":589,"x_min":35,"x_max":655,"o":"m 508 0 l 35 0 q 65 53 49 19 q 88 133 80 86 l 187 800 l 187 798 q 192 851 192 824 q 186 902 192 881 q 174 936 180 923 l 655 936 q 647 878 651 904 q 640 824 643 852 q 591 848 621 841 q 511 856 562 856 l 299 856 l 247 519 l 468 519 q 524 528 500 519 q 565 546 548 536 q 556 477 559 506 q 548 417 552 449 q 510 437 533 428 q 452 445 487 445 l 236 445 l 182 80 l 399 80 q 479 89 447 80 q 533 115 511 99 l 508 0 m 259 1232 q 275 1227 260 1229 q 310 1223 291 1224 q 348 1220 329 1221 q 380 1220 367 1220 q 407 1134 380 1183 q 465 1049 434 1086 l 405 1047 q 363 1078 390 1058 q 312 1123 337 1098 q 271 1176 287 1148 q 259 1232 254 1204 z "},"É":{"ha":589,"x_min":35,"x_max":655,"o":"m 508 0 l 35 0 q 65 53 49 19 q 88 133 80 86 l 187 800 l 187 798 q 192 851 192 824 q 186 902 192 881 q 174 936 180 923 l 655 936 q 647 878 651 904 q 640 824 643 852 q 591 848 621 841 q 511 856 562 856 l 299 856 l 247 519 l 468 519 q 524 528 500 519 q 565 546 548 536 q 556 477 559 506 q 548 417 552 449 q 510 437 533 428 q 452 445 487 445 l 236 445 l 182 80 l 399 80 q 479 89 447 80 q 533 115 511 99 l 508 0 m 495 1220 q 469 1177 489 1202 q 425 1126 450 1153 q 374 1076 401 1100 q 326 1036 346 1052 l 415 1049 q 470 1082 437 1062 q 534 1126 503 1102 q 590 1178 565 1151 q 619 1232 615 1205 q 595 1227 615 1229 q 552 1223 575 1224 q 495 1220 525 1221 m 621 1234 q 619 1232 621 1232 q 621 1236 621 1234 l 621 1234 z "},"Ê":{"ha":589,"x_min":35,"x_max":655,"o":"m 508 0 l 35 0 q 65 53 49 19 q 88 133 80 86 l 187 800 l 187 798 q 192 851 192 824 q 186 902 192 881 q 174 936 180 923 l 655 936 q 647 878 651 904 q 640 824 643 852 q 591 848 621 841 q 511 856 562 856 l 299 856 l 247 519 l 468 519 q 524 528 500 519 q 565 546 548 536 q 556 477 559 506 q 548 417 552 449 q 510 437 533 428 q 452 445 487 445 l 236 445 l 182 80 l 399 80 q 479 89 447 80 q 533 115 511 99 l 508 0 m 423 1237 l 463 1183 q 519 1106 489 1146 q 576 1033 549 1065 l 519 1033 q 466 1080 498 1050 q 402 1143 434 1110 q 318 1082 361 1113 q 249 1033 276 1050 l 198 1033 q 263 1094 227 1057 q 353 1183 300 1132 l 353 1181 l 407 1237 l 423 1237 z "},"Ë":{"ha":589,"x_min":35,"x_max":655,"o":"m 508 0 l 35 0 q 65 53 49 19 q 88 133 80 86 l 187 800 l 187 798 q 192 851 192 824 q 186 902 192 881 q 174 936 180 923 l 655 936 q 647 878 651 904 q 640 824 643 852 q 591 848 621 841 q 511 856 562 856 l 299 856 l 247 519 l 468 519 q 524 528 500 519 q 565 546 548 536 q 556 477 559 506 q 548 417 552 449 q 510 437 533 428 q 452 445 487 445 l 236 445 l 182 80 l 399 80 q 479 89 447 80 q 533 115 511 99 l 508 0 m 225 1122 q 255 1183 231 1161 q 307 1205 278 1205 q 346 1182 330 1205 q 358 1127 361 1159 q 330 1070 353 1092 q 279 1049 307 1049 q 236 1069 252 1049 q 225 1124 220 1089 l 225 1122 m 474 1122 q 504 1183 481 1161 q 556 1205 527 1205 q 595 1182 580 1205 q 607 1127 610 1159 q 579 1070 602 1092 q 528 1049 556 1049 q 485 1069 501 1049 q 474 1124 469 1089 l 474 1122 z "},"Ì":{"ha":299,"x_min":37,"x_max":345,"o":"m 193 137 q 190 112 190 125 q 190 86 190 99 q 195 37 190 59 q 206 0 200 14 l 37 0 q 66 53 51 19 q 89 133 81 86 q 138 466 112 297 q 190 800 164 635 q 189 881 196 846 q 174 936 182 916 l 345 936 q 315 885 330 918 q 292 803 300 852 l 193 137 m 65 1216 q 82 1211 67 1213 q 117 1207 97 1208 q 155 1205 136 1205 q 187 1204 174 1204 q 214 1118 187 1167 q 271 1033 241 1070 l 212 1031 q 170 1062 196 1042 q 119 1107 144 1082 q 77 1160 94 1132 q 65 1216 61 1188 z "},"Í":{"ha":299,"x_min":37,"x_max":471,"o":"m 193 137 q 190 112 190 125 q 190 86 190 99 q 195 37 190 59 q 206 0 200 14 l 37 0 q 66 53 51 19 q 89 133 81 86 q 138 466 112 297 q 190 800 164 635 q 189 881 196 846 q 174 936 182 916 l 345 936 q 315 885 330 918 q 292 803 300 852 l 193 137 m 345 1204 q 319 1161 338 1186 q 275 1110 300 1137 q 223 1060 251 1084 q 176 1020 196 1036 l 265 1033 q 320 1066 287 1046 q 384 1110 353 1086 q 440 1162 415 1135 q 469 1216 465 1189 q 445 1211 465 1213 q 402 1207 425 1208 q 345 1204 375 1205 m 471 1218 q 469 1216 471 1216 q 471 1220 471 1218 l 471 1218 z "},"Î":{"ha":299,"x_min":37,"x_max":434,"o":"m 193 137 q 190 112 190 125 q 190 86 190 99 q 195 37 190 59 q 206 0 200 14 l 37 0 q 66 53 51 19 q 89 133 81 86 q 138 466 112 297 q 190 800 164 635 q 189 881 196 846 q 174 936 182 916 l 345 936 q 315 885 330 918 q 292 803 300 852 l 193 137 m 281 1237 l 321 1183 q 377 1106 346 1146 q 434 1033 407 1065 l 377 1033 q 324 1080 356 1050 q 260 1143 292 1110 q 176 1082 219 1113 q 107 1033 134 1050 l 56 1033 q 121 1094 85 1057 q 211 1183 158 1132 l 211 1181 l 265 1237 l 281 1237 z "},"Ï":{"ha":299,"x_min":37,"x_max":452,"o":"m 193 137 q 190 112 190 125 q 190 86 190 99 q 195 37 190 59 q 206 0 200 14 l 37 0 q 66 53 51 19 q 89 133 81 86 q 138 466 112 297 q 190 800 164 635 q 189 881 196 846 q 174 936 182 916 l 345 936 q 315 885 330 918 q 292 803 300 852 l 193 137 m 67 1122 q 97 1183 73 1161 q 148 1205 120 1205 q 188 1182 172 1205 q 200 1127 203 1159 q 172 1070 195 1092 q 121 1049 148 1049 q 78 1069 94 1049 q 67 1124 62 1089 l 67 1122 m 316 1122 q 346 1183 322 1161 q 398 1205 369 1205 q 437 1182 421 1205 q 449 1127 452 1159 q 421 1070 444 1092 q 370 1049 398 1049 q 327 1069 343 1049 q 316 1124 311 1089 l 316 1122 z "},"Ð":{"ha":848,"x_min":62,"x_max":857,"o":"m 78 512 l 192 512 l 235 800 q 235 881 241 846 q 220 936 228 916 l 468 936 q 622 902 551 936 q 746 806 693 868 q 828 656 798 744 q 857 461 857 568 q 811 273 849 358 q 713 128 773 188 q 576 34 653 67 q 415 0 500 0 l 81 0 q 112 53 96 19 q 136 133 128 86 l 177 434 l 62 434 l 78 512 m 345 856 l 295 512 l 450 512 q 442 472 447 490 q 434 434 437 453 l 281 434 l 228 75 l 423 75 q 542 102 487 75 q 638 180 597 129 q 704 301 678 230 q 734 460 730 372 q 668 752 742 648 q 463 856 594 856 l 345 856 z "},"Ñ":{"ha":825,"x_min":29,"x_max":886,"o":"m 710 0 l 650 0 l 548 198 q 460 354 506 270 q 371 516 413 437 q 296 656 329 594 q 251 750 263 718 q 229 602 241 680 q 205 443 217 524 q 182 283 193 362 q 161 136 171 204 l 161 137 q 156 85 156 110 q 161 34 156 56 q 172 0 166 13 l 29 0 q 59 53 43 19 q 83 133 75 86 q 131 466 105 297 q 180 800 156 635 q 180 881 187 846 q 166 936 174 916 l 275 936 q 309 868 286 908 q 364 771 332 827 q 453 615 404 704 q 547 442 501 527 q 626 291 592 358 q 667 200 659 223 l 674 262 l 757 800 q 758 884 763 851 q 742 936 752 918 l 886 936 q 856 884 872 918 q 833 803 841 851 l 710 0 m 591 1034 q 540 1042 568 1034 q 495 1066 512 1049 q 457 1093 477 1082 q 415 1103 436 1103 q 367 1087 390 1103 q 332 1034 345 1071 l 297 1034 q 354 1133 316 1102 q 439 1164 393 1164 q 487 1153 460 1164 q 535 1129 514 1143 q 570 1107 551 1116 q 608 1098 589 1098 q 663 1113 639 1098 q 701 1164 686 1127 l 736 1164 q 676 1066 715 1097 q 591 1034 637 1034 z "},"Ò":{"ha":894,"x_min":72,"x_max":902,"o":"m 73 484 q 125 682 83 595 q 231 829 168 769 q 371 919 294 888 q 528 950 449 950 q 674 910 607 943 q 793 818 742 876 q 872 679 843 760 q 902 498 902 599 q 901 469 902 485 q 899 437 900 452 q 847 245 888 330 q 746 101 806 160 q 607 14 685 43 q 444 -11 528 -16 q 299 26 367 -6 q 181 117 231 59 q 101 254 131 174 q 72 431 72 334 q 72 457 72 444 q 73 484 72 469 m 196 479 q 194 449 195 463 q 193 418 193 434 q 213 281 193 343 q 267 172 233 219 q 349 97 302 125 q 452 64 396 69 q 568 91 512 64 q 667 168 624 118 q 740 287 710 217 q 777 444 769 358 q 780 477 779 460 q 781 508 781 493 q 761 650 781 586 q 707 761 742 714 q 625 836 672 808 q 522 868 578 864 q 406 841 461 868 q 307 764 351 814 q 233 642 262 714 q 196 479 204 570 m 348 1216 q 365 1211 350 1213 q 399 1207 380 1208 q 437 1205 418 1205 q 469 1204 457 1204 q 496 1118 469 1167 q 554 1033 524 1070 l 495 1031 q 453 1062 479 1042 q 402 1107 426 1082 q 360 1160 377 1132 q 348 1216 343 1188 z "},"Ó":{"ha":894,"x_min":72,"x_max":902,"o":"m 73 484 q 125 682 83 595 q 231 829 168 769 q 371 919 294 888 q 528 950 449 950 q 674 910 607 943 q 793 818 742 876 q 872 679 843 760 q 902 498 902 599 q 901 469 902 485 q 899 437 900 452 q 847 245 888 330 q 746 101 806 160 q 607 14 685 43 q 444 -11 528 -16 q 299 26 367 -6 q 181 117 231 59 q 101 254 131 174 q 72 431 72 334 q 72 457 72 444 q 73 484 72 469 m 196 479 q 194 449 195 463 q 193 418 193 434 q 213 281 193 343 q 267 172 233 219 q 349 97 302 125 q 452 64 396 69 q 568 91 512 64 q 667 168 624 118 q 740 287 710 217 q 777 444 769 358 q 780 477 779 460 q 781 508 781 493 q 761 650 781 586 q 707 761 742 714 q 625 836 672 808 q 522 868 578 864 q 406 841 461 868 q 307 764 351 814 q 233 642 262 714 q 196 479 204 570 m 645 1204 q 619 1161 639 1186 q 576 1110 600 1137 q 524 1060 551 1084 q 476 1020 496 1036 l 565 1033 q 620 1066 587 1046 q 684 1110 653 1086 q 740 1162 715 1135 q 769 1216 765 1189 q 745 1211 765 1213 q 702 1207 725 1208 q 645 1204 675 1205 m 771 1218 q 769 1216 771 1216 q 771 1220 771 1218 l 771 1218 z "},"Ô":{"ha":894,"x_min":72,"x_max":902,"o":"m 73 484 q 125 682 83 595 q 231 829 168 769 q 371 919 294 888 q 528 950 449 950 q 674 910 607 943 q 793 818 742 876 q 872 679 843 760 q 902 498 902 599 q 901 469 902 485 q 899 437 900 452 q 847 245 888 330 q 746 101 806 160 q 607 14 685 43 q 444 -11 528 -16 q 299 26 367 -6 q 181 117 231 59 q 101 254 131 174 q 72 431 72 334 q 72 457 72 444 q 73 484 72 469 m 196 479 q 194 449 195 463 q 193 418 193 434 q 213 281 193 343 q 267 172 233 219 q 349 97 302 125 q 452 64 396 69 q 568 91 512 64 q 667 168 624 118 q 740 287 710 217 q 777 444 769 358 q 780 477 779 460 q 781 508 781 493 q 761 650 781 586 q 707 761 742 714 q 625 836 672 808 q 522 868 578 864 q 406 841 461 868 q 307 764 351 814 q 233 642 262 714 q 196 479 204 570 m 575 1221 l 615 1167 q 670 1090 640 1130 q 728 1017 701 1049 l 670 1017 q 618 1064 650 1034 q 554 1127 586 1094 q 470 1066 512 1097 q 401 1017 428 1034 l 350 1017 q 415 1078 378 1041 q 504 1167 452 1116 l 504 1165 l 559 1221 l 575 1221 z "},"Õ":{"ha":894,"x_min":72,"x_max":902,"o":"m 73 484 q 125 682 83 595 q 231 829 168 769 q 371 919 294 888 q 528 950 449 950 q 674 910 607 943 q 793 818 742 876 q 872 679 843 760 q 902 498 902 599 q 901 469 902 485 q 899 437 900 452 q 847 245 888 330 q 746 101 806 160 q 607 14 685 43 q 444 -11 528 -16 q 299 26 367 -6 q 181 117 231 59 q 101 254 131 174 q 72 431 72 334 q 72 457 72 444 q 73 484 72 469 m 196 479 q 194 449 195 463 q 193 418 193 434 q 213 281 193 343 q 267 172 233 219 q 349 97 302 125 q 452 64 396 69 q 568 91 512 64 q 667 168 624 118 q 740 287 710 217 q 777 444 769 358 q 780 477 779 460 q 781 508 781 493 q 761 650 781 586 q 707 761 742 714 q 625 836 672 808 q 522 868 578 864 q 406 841 461 868 q 307 764 351 814 q 233 642 262 714 q 196 479 204 570 m 626 1034 q 576 1042 603 1034 q 530 1066 548 1049 q 492 1093 512 1082 q 450 1103 471 1103 q 402 1087 425 1103 q 367 1034 380 1071 l 332 1034 q 390 1133 351 1102 q 474 1164 428 1164 q 522 1153 495 1164 q 570 1129 549 1143 q 605 1107 586 1116 q 643 1098 624 1098 q 698 1113 674 1098 q 736 1164 722 1127 l 771 1164 q 711 1066 750 1097 q 626 1034 672 1034 z "},"Ö":{"ha":894,"x_min":72,"x_max":902,"o":"m 73 484 q 125 682 83 595 q 231 829 168 769 q 371 919 294 888 q 528 950 449 950 q 674 910 607 943 q 793 818 742 876 q 872 679 843 760 q 902 498 902 599 q 901 469 902 485 q 899 437 900 452 q 847 245 888 330 q 746 101 806 160 q 607 14 685 43 q 444 -11 528 -16 q 299 26 367 -6 q 181 117 231 59 q 101 254 131 174 q 72 431 72 334 q 72 457 72 444 q 73 484 72 469 m 196 479 q 194 449 195 463 q 193 418 193 434 q 213 281 193 343 q 267 172 233 219 q 349 97 302 125 q 452 64 396 69 q 568 91 512 64 q 667 168 624 118 q 740 287 710 217 q 777 444 769 358 q 780 477 779 460 q 781 508 781 493 q 761 650 781 586 q 707 761 742 714 q 625 836 672 808 q 522 868 578 864 q 406 841 461 868 q 307 764 351 814 q 233 642 262 714 q 196 479 204 570 m 362 1122 q 392 1183 369 1161 q 444 1205 415 1205 q 483 1182 468 1205 q 495 1127 498 1159 q 467 1070 490 1092 q 417 1049 444 1049 q 374 1069 390 1049 q 362 1124 358 1089 l 362 1122 m 611 1122 q 641 1183 618 1161 q 693 1205 664 1205 q 732 1182 717 1205 q 744 1127 747 1159 q 716 1070 739 1092 q 666 1049 693 1049 q 623 1069 639 1049 q 611 1124 607 1089 l 611 1122 z "},"×":{"ha":686,"x_min":139,"x_max":640,"o":"m 640 605 l 442 425 l 587 244 l 527 187 l 380 370 l 182 188 q 160 215 169 204 q 139 239 150 225 l 340 421 q 268 511 308 465 q 193 602 228 557 q 224 629 211 616 q 254 658 238 642 l 401 476 l 602 658 l 640 605 z "},"Ø":{"ha":894,"x_min":19,"x_max":961,"o":"m 19 0 l 897 950 l 961 950 l 83 0 l 19 0 m 75 498 q 130 701 88 613 q 235 846 172 789 q 377 929 299 904 q 538 948 455 955 q 683 907 616 940 q 799 816 750 873 q 876 679 848 758 q 904 501 904 600 q 899 425 904 465 q 845 235 886 318 q 740 95 803 152 q 599 12 677 38 q 436 -10 520 -14 q 296 35 362 0 q 180 127 230 70 q 101 260 131 184 q 72 429 72 337 q 72 463 72 445 q 75 498 72 481 m 196 489 q 194 454 195 471 q 193 421 193 437 q 212 283 193 346 q 263 172 230 219 q 342 97 295 125 q 444 64 388 69 q 564 84 508 59 q 665 158 621 109 q 738 278 709 208 q 777 434 768 348 q 781 472 781 452 q 781 509 781 492 q 762 647 781 584 q 710 756 744 709 q 631 831 677 803 q 532 867 586 859 q 413 845 469 868 q 312 772 358 821 q 236 651 267 723 q 196 489 206 580 z "},"Ù":{"ha":824,"x_min":104,"x_max":876,"o":"m 214 308 q 209 279 211 295 q 208 251 208 263 q 251 115 208 164 q 385 65 294 65 q 445 72 412 65 q 510 90 477 78 q 573 117 543 102 q 626 152 603 133 l 723 800 q 723 881 730 846 q 709 936 717 916 l 876 936 q 848 884 864 918 q 825 803 833 849 l 726 136 l 726 137 q 723 112 723 125 q 723 86 723 99 q 728 37 723 59 q 739 0 733 14 l 607 0 q 613 30 610 14 q 618 80 616 46 q 552 42 591 59 q 474 14 514 26 q 397 -3 434 3 q 335 -10 359 -10 q 227 6 271 -10 q 156 51 184 22 q 116 121 128 80 q 104 211 104 161 q 106 254 104 231 q 112 300 109 276 l 185 800 l 185 798 q 190 849 190 824 q 185 901 190 880 q 172 936 180 923 l 342 936 q 311 884 326 918 q 289 803 297 851 l 214 308 m 358 1216 q 374 1211 359 1213 q 409 1207 390 1208 q 447 1205 428 1205 q 479 1204 466 1204 q 506 1118 479 1167 q 564 1033 533 1070 l 504 1031 q 462 1062 489 1042 q 411 1107 436 1082 q 370 1160 386 1132 q 358 1216 353 1188 z "},"Ú":{"ha":824,"x_min":104,"x_max":876,"o":"m 214 308 q 209 279 211 295 q 208 251 208 263 q 251 115 208 164 q 385 65 294 65 q 445 72 412 65 q 510 90 477 78 q 573 117 543 102 q 626 152 603 133 l 723 800 q 723 881 730 846 q 709 936 717 916 l 876 936 q 848 884 864 918 q 825 803 833 849 l 726 136 l 726 137 q 723 112 723 125 q 723 86 723 99 q 728 37 723 59 q 739 0 733 14 l 607 0 q 613 30 610 14 q 618 80 616 46 q 552 42 591 59 q 474 14 514 26 q 397 -3 434 3 q 335 -10 359 -10 q 227 6 271 -10 q 156 51 184 22 q 116 121 128 80 q 104 211 104 161 q 106 254 104 231 q 112 300 109 276 l 185 800 l 185 798 q 190 849 190 824 q 185 901 190 880 q 172 936 180 923 l 342 936 q 311 884 326 918 q 289 803 297 851 l 214 308 m 610 1204 q 584 1161 603 1186 q 540 1110 565 1137 q 489 1060 516 1084 q 441 1020 461 1036 l 530 1033 q 585 1066 552 1046 q 649 1110 618 1086 q 705 1162 680 1135 q 734 1216 730 1189 q 710 1211 730 1213 q 667 1207 690 1208 q 610 1204 640 1205 m 736 1218 q 734 1216 736 1216 q 736 1220 736 1218 l 736 1218 z "},"Û":{"ha":824,"x_min":104,"x_max":876,"o":"m 214 308 q 209 279 211 295 q 208 251 208 263 q 251 115 208 164 q 385 65 294 65 q 445 72 412 65 q 510 90 477 78 q 573 117 543 102 q 626 152 603 133 l 723 800 q 723 881 730 846 q 709 936 717 916 l 876 936 q 848 884 864 918 q 825 803 833 849 l 726 136 l 726 137 q 723 112 723 125 q 723 86 723 99 q 728 37 723 59 q 739 0 733 14 l 607 0 q 613 30 610 14 q 618 80 616 46 q 552 42 591 59 q 474 14 514 26 q 397 -3 434 3 q 335 -10 359 -10 q 227 6 271 -10 q 156 51 184 22 q 116 121 128 80 q 104 211 104 161 q 106 254 104 231 q 112 300 109 276 l 185 800 l 185 798 q 190 849 190 824 q 185 901 190 880 q 172 936 180 923 l 342 936 q 311 884 326 918 q 289 803 297 851 l 214 308 m 540 1237 l 580 1183 q 635 1106 605 1146 q 693 1033 666 1065 l 635 1033 q 583 1080 615 1050 q 519 1143 551 1110 q 435 1082 477 1113 q 366 1033 393 1050 l 314 1033 q 380 1094 343 1057 q 469 1183 417 1132 l 469 1181 l 524 1237 l 540 1237 z "},"Ü":{"ha":824,"x_min":104,"x_max":876,"o":"m 214 308 q 209 279 211 295 q 208 251 208 263 q 251 115 208 164 q 385 65 294 65 q 445 72 412 65 q 510 90 477 78 q 573 117 543 102 q 626 152 603 133 l 723 800 q 723 881 730 846 q 709 936 717 916 l 876 936 q 848 884 864 918 q 825 803 833 849 l 726 136 l 726 137 q 723 112 723 125 q 723 86 723 99 q 728 37 723 59 q 739 0 733 14 l 607 0 q 613 30 610 14 q 618 80 616 46 q 552 42 591 59 q 474 14 514 26 q 397 -3 434 3 q 335 -10 359 -10 q 227 6 271 -10 q 156 51 184 22 q 116 121 128 80 q 104 211 104 161 q 106 254 104 231 q 112 300 109 276 l 185 800 l 185 798 q 190 849 190 824 q 185 901 190 880 q 172 936 180 923 l 342 936 q 311 884 326 918 q 289 803 297 851 l 214 308 m 327 1122 q 357 1183 334 1161 q 409 1205 380 1205 q 448 1182 433 1205 q 460 1127 463 1159 q 432 1070 455 1092 q 382 1049 409 1049 q 338 1069 354 1049 q 327 1124 322 1089 l 327 1122 m 576 1122 q 606 1183 583 1161 q 658 1205 629 1205 q 697 1182 682 1205 q 709 1127 712 1159 q 681 1070 704 1092 q 631 1049 658 1049 q 587 1069 603 1049 q 576 1124 572 1089 l 576 1122 z "},"Ý":{"ha":793,"x_min":137,"x_max":875,"o":"m 477 369 l 442 136 l 442 137 q 437 85 437 110 q 442 34 437 56 q 453 0 447 13 l 286 0 q 315 53 300 19 q 338 133 330 86 l 374 366 l 190 837 q 163 892 177 867 q 137 932 148 916 q 238 934 195 932 q 335 936 281 936 q 324 878 324 910 q 327 843 324 856 l 479 474 l 704 824 q 729 886 723 856 q 734 934 734 916 q 807 935 776 934 q 875 936 838 936 q 836 896 857 920 q 792 841 814 873 l 477 369 m 589 1188 q 564 1145 583 1170 q 520 1094 544 1121 q 468 1044 495 1068 q 420 1004 441 1020 l 509 1017 q 564 1050 532 1030 q 628 1094 597 1070 q 684 1146 659 1119 q 714 1201 709 1173 q 689 1195 709 1197 q 647 1191 669 1193 q 589 1188 619 1189 m 715 1202 q 714 1201 715 1201 q 715 1204 715 1202 l 715 1202 z "},"Þ":{"ha":650,"x_min":35,"x_max":664,"o":"m 351 936 q 312 876 327 910 q 291 808 297 841 l 289 771 l 334 771 q 469 756 407 771 q 576 706 532 741 q 642 618 619 672 q 659 485 664 564 q 625 369 655 420 q 546 283 595 318 q 432 230 496 247 q 292 212 367 212 l 203 212 l 190 136 l 190 137 q 187 112 187 125 q 187 86 187 99 q 192 37 187 59 q 204 0 196 14 l 35 0 q 65 53 49 19 q 88 133 80 86 q 136 466 110 297 q 187 800 163 635 q 187 881 193 846 q 172 936 180 916 l 351 936 m 273 691 l 214 289 l 300 289 q 466 342 405 289 q 536 482 527 394 q 487 642 541 592 q 327 691 433 691 l 273 691 z "},"ß":{"ha":769,"x_min":-67,"x_max":757,"o":"m 648 145 q 625 216 653 182 q 560 284 597 249 q 514 335 538 307 q 471 396 490 364 q 440 463 452 428 q 433 535 428 498 q 473 631 442 594 q 535 696 503 669 q 584 745 562 720 q 613 806 607 769 q 594 888 619 857 q 501 920 568 920 q 382 867 428 920 q 322 736 337 814 l 297 572 l 201 -78 q 172 -160 193 -121 q 125 -228 152 -200 q 69 -275 99 -257 q 13 -292 40 -292 q -36 -281 -16 -292 q -67 -254 -56 -270 q 41 -192 -6 -243 q 101 -64 88 -140 l 134 184 l 195 584 l 94 584 l 104 648 l 206 648 l 217 736 q 251 837 227 790 q 313 916 276 883 q 396 969 350 950 q 495 988 442 988 q 607 970 562 988 q 676 923 651 951 q 709 859 701 894 q 712 790 717 824 q 697 737 707 760 q 673 696 686 714 q 643 663 659 678 q 611 635 627 648 q 564 591 584 615 q 536 540 543 568 q 560 469 533 503 q 624 401 587 436 q 674 353 648 378 q 718 296 699 327 q 747 228 738 265 q 750 148 757 192 q 720 76 742 105 q 666 27 698 46 q 595 -1 634 8 q 519 -10 557 -10 q 431 0 473 -10 q 364 21 390 10 q 369 70 367 45 q 374 118 370 96 q 444 76 402 93 q 532 59 485 59 q 607 77 575 59 q 648 144 640 96 l 648 145 z "},"à":{"ha":648,"x_min":57,"x_max":659,"o":"m 560 115 q 566 45 551 61 q 600 29 581 29 q 564 1 583 8 q 528 -6 544 -6 q 477 13 498 -6 q 457 70 457 32 q 373 10 423 29 q 278 -8 322 -8 q 184 14 227 -8 q 113 77 142 37 q 71 177 85 118 q 62 311 57 236 q 95 450 69 386 q 161 560 121 514 q 250 631 201 605 q 350 656 299 656 q 398 653 372 656 q 447 641 423 650 q 492 618 471 632 q 527 580 512 603 q 533 621 530 608 q 540 645 536 634 l 538 642 q 539 646 538 645 q 540 648 540 647 l 659 648 q 640 607 650 632 q 624 546 631 583 l 560 115 m 168 322 q 174 204 161 252 q 212 125 187 155 q 267 83 236 96 q 330 70 299 70 q 409 93 375 70 q 461 163 444 117 l 517 503 q 463 558 496 538 q 383 578 429 578 q 241 514 303 578 q 168 322 179 450 m 160 945 q 176 939 161 942 q 211 936 192 937 q 249 933 230 934 q 281 932 268 932 q 308 847 281 896 q 366 761 335 798 l 307 760 q 264 791 291 771 q 213 836 238 811 q 172 888 188 860 q 160 945 155 916 z "},"á":{"ha":643,"x_min":57,"x_max":659,"o":"m 560 115 q 566 45 551 61 q 600 29 581 29 q 564 1 583 8 q 528 -6 544 -6 q 477 13 498 -6 q 457 70 457 32 q 373 10 423 29 q 278 -8 322 -8 q 184 14 227 -8 q 113 77 142 37 q 71 177 85 118 q 62 311 57 236 q 95 450 69 386 q 161 560 121 514 q 250 631 201 605 q 350 656 299 656 q 398 653 372 656 q 447 641 423 650 q 492 618 471 632 q 527 580 512 603 q 533 621 530 608 q 540 645 536 634 l 538 642 q 539 646 538 645 q 540 648 540 647 l 659 648 q 640 607 650 632 q 624 546 631 583 l 560 115 m 168 322 q 174 204 161 252 q 212 125 187 155 q 267 83 236 96 q 330 70 299 70 q 409 93 375 70 q 461 163 444 117 l 517 503 q 463 558 496 538 q 383 578 429 578 q 241 514 303 578 q 168 322 179 450 m 410 932 q 385 890 404 915 q 341 839 366 865 q 289 789 316 813 q 241 749 262 765 l 330 761 q 386 794 353 774 q 449 839 418 814 q 505 891 481 864 q 535 945 530 918 q 510 939 530 942 q 468 936 490 937 q 410 932 441 934 m 536 947 q 535 945 536 945 q 536 948 536 947 l 536 947 z "},"â":{"ha":643,"x_min":57,"x_max":659,"o":"m 560 115 q 566 45 551 61 q 600 29 581 29 q 564 1 583 8 q 528 -6 544 -6 q 477 13 498 -6 q 457 70 457 32 q 373 10 423 29 q 278 -8 322 -8 q 184 14 227 -8 q 113 77 142 37 q 71 177 85 118 q 62 311 57 236 q 95 450 69 386 q 161 560 121 514 q 250 631 201 605 q 350 656 299 656 q 398 653 372 656 q 447 641 423 650 q 492 618 471 632 q 527 580 512 603 q 533 621 530 608 q 540 645 536 634 l 538 642 q 539 646 538 645 q 540 648 540 647 l 659 648 q 640 607 650 632 q 624 546 631 583 l 560 115 m 168 322 q 174 204 161 252 q 212 125 187 155 q 267 83 236 96 q 330 70 299 70 q 409 93 375 70 q 461 163 444 117 l 517 503 q 463 558 496 538 q 383 578 429 578 q 241 514 303 578 q 168 322 179 450 m 374 966 l 413 912 q 469 834 439 875 q 527 761 500 793 l 469 761 q 417 809 449 779 q 353 872 385 838 q 269 810 311 841 q 200 761 227 779 l 148 761 q 214 823 177 785 q 303 912 251 860 l 303 910 l 358 966 l 374 966 z "},"ã":{"ha":642,"x_min":57,"x_max":659,"o":"m 560 115 q 566 45 551 61 q 600 29 581 29 q 564 1 583 8 q 528 -6 544 -6 q 477 13 498 -6 q 457 70 457 32 q 373 10 423 29 q 278 -8 322 -8 q 184 14 227 -8 q 113 77 142 37 q 71 177 85 118 q 62 311 57 236 q 95 450 69 386 q 161 560 121 514 q 250 631 201 605 q 350 656 299 656 q 398 653 372 656 q 447 641 423 650 q 492 618 471 632 q 527 580 512 603 q 533 621 530 608 q 540 645 536 634 l 538 642 q 539 646 538 645 q 540 648 540 647 l 659 648 q 640 607 650 632 q 624 546 631 583 l 560 115 m 168 322 q 174 204 161 252 q 212 125 187 155 q 267 83 236 96 q 330 70 299 70 q 409 93 375 70 q 461 163 444 117 l 517 503 q 463 558 496 538 q 383 578 429 578 q 241 514 303 578 q 168 322 179 450 m 439 779 q 389 786 417 779 q 343 811 361 793 q 305 837 326 827 q 263 848 284 848 q 216 832 238 848 q 180 779 193 816 l 145 779 q 203 877 164 846 q 287 908 241 908 q 335 898 308 908 q 383 873 362 888 q 418 852 399 860 q 457 843 437 843 q 511 857 487 843 q 549 908 535 872 l 584 908 q 524 810 564 841 q 439 779 485 779 z "},"ä":{"ha":645,"x_min":57,"x_max":659,"o":"m 560 115 q 566 45 551 61 q 600 29 581 29 q 564 1 583 8 q 528 -6 544 -6 q 477 13 498 -6 q 457 70 457 32 q 373 10 423 29 q 278 -8 322 -8 q 184 14 227 -8 q 113 77 142 37 q 71 177 85 118 q 62 311 57 236 q 95 450 69 386 q 161 560 121 514 q 250 631 201 605 q 350 656 299 656 q 398 653 372 656 q 447 641 423 650 q 492 618 471 632 q 527 580 512 603 q 533 621 530 608 q 540 645 536 634 l 538 642 q 539 646 538 645 q 540 648 540 647 l 659 648 q 640 607 650 632 q 624 546 631 583 l 560 115 m 168 322 q 174 204 161 252 q 212 125 187 155 q 267 83 236 96 q 330 70 299 70 q 409 93 375 70 q 461 163 444 117 l 517 503 q 463 558 496 538 q 383 578 429 578 q 241 514 303 578 q 168 322 179 450 m 176 851 q 205 912 182 889 q 257 934 228 934 q 296 911 281 934 q 308 856 311 888 q 280 799 303 821 q 230 777 257 777 q 187 797 203 777 q 176 852 171 817 l 176 851 m 425 851 q 454 912 431 889 q 506 934 477 934 q 545 911 530 934 q 557 856 560 888 q 529 799 552 821 q 479 777 506 777 q 436 797 452 777 q 425 852 420 817 l 425 851 z "},"å":{"ha":640,"x_min":57,"x_max":659,"o":"m 560 115 q 566 45 551 61 q 600 29 581 29 q 564 1 583 8 q 528 -6 544 -6 q 477 13 498 -6 q 457 70 457 32 q 373 10 423 29 q 278 -8 322 -8 q 184 14 227 -8 q 113 77 142 37 q 71 177 85 118 q 62 311 57 236 q 95 450 69 386 q 161 560 121 514 q 250 631 201 605 q 350 656 299 656 q 398 653 372 656 q 447 641 423 650 q 492 618 471 632 q 527 580 512 603 q 533 621 530 608 q 540 645 536 634 l 538 642 q 539 646 538 645 q 540 648 540 647 l 659 648 q 640 607 650 632 q 624 546 631 583 l 560 115 m 168 322 q 174 204 161 252 q 212 125 187 155 q 267 83 236 96 q 330 70 299 70 q 409 93 375 70 q 461 163 444 117 l 517 503 q 463 558 496 538 q 383 578 429 578 q 241 514 303 578 q 168 322 179 450 m 263 848 q 307 926 271 894 q 383 958 342 958 q 448 928 425 958 q 465 852 471 897 q 450 810 461 830 q 422 775 439 790 q 386 751 405 760 q 345 742 366 742 q 281 773 303 742 q 263 849 259 805 l 263 848 m 286 852 q 303 796 283 821 q 354 771 322 771 q 412 794 386 771 q 442 849 437 817 q 426 905 447 881 q 374 929 405 929 q 318 907 343 929 q 286 854 292 884 l 286 852 z "},"æ":{"ha":1004,"x_min":54,"x_max":1041,"o":"m 832 656 q 932 641 891 656 q 999 600 974 626 q 1032 544 1023 575 q 1034 479 1041 512 q 1014 417 1030 447 q 966 366 998 388 q 885 329 934 343 q 768 314 837 314 l 594 314 q 600 215 587 262 q 641 132 613 168 q 707 74 669 96 q 789 53 746 53 q 877 67 830 53 q 959 104 924 81 q 955 65 955 75 q 951 32 955 56 q 877 3 929 16 q 760 -10 825 -10 q 619 19 682 -10 q 516 118 556 48 q 454 49 487 75 q 389 11 421 24 q 326 -5 356 -2 q 275 -8 295 -8 q 181 14 223 -8 q 110 77 139 37 q 68 177 81 118 q 59 311 54 236 q 92 450 65 386 q 158 560 118 514 q 247 631 198 605 q 346 656 295 656 q 438 641 391 656 q 522 580 485 626 q 529 621 525 608 q 536 645 533 634 l 535 642 q 536 646 535 645 q 536 648 536 647 l 635 648 q 635 645 634 647 q 632 627 635 643 l 619 557 q 736 635 686 613 q 832 656 785 656 m 164 322 q 171 204 158 252 q 208 125 184 155 q 263 83 231 96 q 326 70 294 70 q 406 93 372 70 q 458 163 441 117 l 514 503 q 460 558 493 538 q 380 578 426 578 q 238 514 300 578 q 164 322 176 450 m 829 587 q 754 572 790 587 q 687 527 717 556 q 635 460 658 498 q 603 378 613 421 l 798 378 q 909 407 868 378 q 958 473 950 436 q 955 514 961 493 q 935 551 950 535 q 893 577 920 567 q 829 587 867 587 z "},"ç":{"ha":552,"x_min":64,"x_max":565,"o":"m 176 318 q 212 125 163 198 q 361 53 260 53 q 506 107 442 53 q 501 84 503 93 q 498 68 500 75 q 495 53 496 61 q 492 32 493 45 q 427 3 469 16 q 319 -10 385 -10 q 219 9 265 -10 q 138 63 172 27 q 84 150 104 99 q 64 268 64 201 q 64 291 64 279 q 65 314 64 302 q 105 458 73 394 q 181 566 136 522 q 284 634 227 610 q 402 658 342 658 q 494 648 449 658 q 565 627 540 639 q 559 584 562 603 q 552 543 556 565 q 495 578 528 565 q 415 591 461 591 q 251 517 316 591 q 176 318 187 444 m 255 -148 q 289 -80 273 -112 q 314 -26 302 -53 q 329 10 326 0 q 354 9 338 10 q 380 5 370 8 q 361 -30 370 -13 q 344 -64 353 -46 q 327 -96 335 -81 q 350 -98 327 -94 q 398 -114 374 -102 q 441 -150 423 -126 q 453 -212 460 -174 q 411 -315 444 -276 q 339 -377 378 -354 q 264 -408 300 -399 q 214 -418 228 -417 l 188 -391 q 275 -367 235 -385 q 338 -324 308 -353 q 375 -246 367 -295 q 371 -197 380 -216 q 347 -168 362 -179 q 311 -152 332 -156 q 271 -148 291 -148 l 255 -148 l 255 -148 z "},"è":{"ha":600,"x_min":59,"x_max":621,"o":"m 413 656 q 513 641 473 656 q 579 600 554 626 q 612 544 603 575 q 616 479 621 512 q 595 417 611 447 q 547 366 578 388 q 467 329 516 343 q 350 314 418 314 l 176 314 q 181 216 168 263 q 222 132 195 168 q 287 74 249 96 q 370 53 326 53 q 459 67 412 53 q 541 104 506 81 q 536 65 538 77 q 530 32 533 54 q 457 3 508 16 q 342 -10 407 -10 q 227 11 279 -10 q 136 73 174 32 q 78 174 97 113 q 65 314 59 235 q 106 447 73 385 q 187 556 139 509 q 294 629 235 602 q 413 656 353 656 m 410 587 q 335 572 372 587 q 268 527 299 556 q 215 460 238 498 q 182 378 192 421 l 380 378 q 488 406 447 378 q 536 471 528 434 q 535 512 540 492 q 514 550 530 533 q 473 577 498 567 q 410 587 447 587 m 270 945 q 287 939 271 942 q 321 936 302 937 q 359 933 340 934 q 391 932 378 932 q 418 847 391 896 q 476 761 445 798 l 417 760 q 374 791 401 771 q 323 836 348 811 q 282 888 299 860 q 270 945 265 916 z "},"é":{"ha":605,"x_min":59,"x_max":621,"o":"m 413 656 q 513 641 473 656 q 579 600 554 626 q 612 544 603 575 q 616 479 621 512 q 595 417 611 447 q 547 366 578 388 q 467 329 516 343 q 350 314 418 314 l 176 314 q 181 216 168 263 q 222 132 195 168 q 287 74 249 96 q 370 53 326 53 q 459 67 412 53 q 541 104 506 81 q 536 65 538 77 q 530 32 533 54 q 457 3 508 16 q 342 -10 407 -10 q 227 11 279 -10 q 136 73 174 32 q 78 174 97 113 q 65 314 59 235 q 106 447 73 385 q 187 556 139 509 q 294 629 235 602 q 413 656 353 656 m 410 587 q 335 572 372 587 q 268 527 299 556 q 215 460 238 498 q 182 378 192 421 l 380 378 q 488 406 447 378 q 536 471 528 434 q 535 512 540 492 q 514 550 530 533 q 473 577 498 567 q 410 587 447 587 m 401 932 q 375 890 394 915 q 331 839 356 865 q 279 789 307 813 q 231 749 252 765 l 321 761 q 376 794 343 774 q 440 839 409 814 q 496 891 471 864 q 525 945 520 918 q 500 939 520 942 q 458 936 481 937 q 401 932 431 934 m 527 947 q 525 945 527 945 q 527 948 527 947 l 527 947 z "},"ê":{"ha":605,"x_min":59,"x_max":621,"o":"m 413 656 q 513 641 473 656 q 579 600 554 626 q 612 544 603 575 q 616 479 621 512 q 595 417 611 447 q 547 366 578 388 q 467 329 516 343 q 350 314 418 314 l 176 314 q 181 216 168 263 q 222 132 195 168 q 287 74 249 96 q 370 53 326 53 q 459 67 412 53 q 541 104 506 81 q 536 65 538 77 q 530 32 533 54 q 457 3 508 16 q 342 -10 407 -10 q 227 11 279 -10 q 136 73 174 32 q 78 174 97 113 q 65 314 59 235 q 106 447 73 385 q 187 556 139 509 q 294 629 235 602 q 413 656 353 656 m 410 587 q 335 572 372 587 q 268 527 299 556 q 215 460 238 498 q 182 378 192 421 l 380 378 q 488 406 447 378 q 536 471 528 434 q 535 512 540 492 q 514 550 530 533 q 473 577 498 567 q 410 587 447 587 m 407 966 l 447 912 q 503 834 473 875 q 560 761 533 793 l 503 761 q 450 809 482 779 q 386 872 418 838 q 303 810 345 841 q 233 761 260 779 l 182 761 q 247 823 211 785 q 337 912 284 860 l 337 910 l 391 966 l 407 966 z "},"ë":{"ha":603,"x_min":59,"x_max":621,"o":"m 413 656 q 513 641 473 656 q 579 600 554 626 q 612 544 603 575 q 616 479 621 512 q 595 417 611 447 q 547 366 578 388 q 467 329 516 343 q 350 314 418 314 l 176 314 q 181 216 168 263 q 222 132 195 168 q 287 74 249 96 q 370 53 326 53 q 459 67 412 53 q 541 104 506 81 q 536 65 538 77 q 530 32 533 54 q 457 3 508 16 q 342 -10 407 -10 q 227 11 279 -10 q 136 73 174 32 q 78 174 97 113 q 65 314 59 235 q 106 447 73 385 q 187 556 139 509 q 294 629 235 602 q 413 656 353 656 m 410 587 q 335 572 372 587 q 268 527 299 556 q 215 460 238 498 q 182 378 192 421 l 380 378 q 488 406 447 378 q 536 471 528 434 q 535 512 540 492 q 514 550 530 533 q 473 577 498 567 q 410 587 447 587 m 193 851 q 223 912 200 889 q 275 934 246 934 q 314 911 299 934 q 326 856 329 888 q 298 799 321 821 q 247 777 275 777 q 204 797 220 777 q 193 852 188 817 l 193 851 m 442 851 q 472 912 449 889 q 524 934 495 934 q 563 911 548 934 q 575 856 578 888 q 547 799 570 821 q 496 777 524 777 q 453 797 469 777 q 442 852 437 817 l 442 851 z "},"ì":{"ha":300,"x_min":37,"x_max":299,"o":"m 198 99 q 199 36 192 57 q 220 5 206 14 q 184 -5 200 -2 q 155 -8 169 -8 q 101 25 113 -8 q 94 96 89 57 l 161 535 q 163 599 166 573 q 153 640 160 626 q 228 647 195 643 q 299 655 262 651 q 281 615 289 639 q 268 556 273 591 l 198 99 l 198 99 m 42 945 q 58 939 43 942 q 93 936 73 937 q 131 933 112 934 q 163 932 150 932 q 190 847 163 896 q 247 761 217 798 l 188 760 q 146 791 172 771 q 95 836 120 811 q 53 888 70 860 q 42 945 37 916 z "},"í":{"ha":300,"x_min":89,"x_max":420,"o":"m 198 99 q 199 36 192 57 q 220 5 206 14 q 184 -5 200 -2 q 155 -8 169 -8 q 101 25 113 -8 q 94 96 89 57 l 161 535 q 163 599 166 573 q 153 640 160 626 q 228 647 195 643 q 299 655 262 651 q 281 615 289 639 q 268 556 273 591 l 198 99 l 198 99 m 294 932 q 268 890 287 915 q 224 839 249 865 q 172 789 200 813 q 125 749 145 765 l 214 761 q 269 794 236 774 q 333 839 302 814 q 389 891 364 864 q 418 945 413 918 q 394 939 413 942 q 351 936 374 937 q 294 932 324 934 m 420 947 q 418 945 420 945 q 420 948 420 947 l 420 947 z "},"î":{"ha":300,"x_min":14,"x_max":393,"o":"m 198 99 q 199 36 192 57 q 220 5 206 14 q 184 -5 200 -2 q 155 -8 169 -8 q 101 25 113 -8 q 94 96 89 57 l 161 535 q 163 599 166 573 q 153 640 160 626 q 228 647 195 643 q 299 655 262 651 q 281 615 289 639 q 268 556 273 591 l 198 99 l 198 99 m 239 966 l 279 912 q 335 834 305 875 q 393 761 366 793 l 335 761 q 283 809 314 779 q 219 872 251 838 q 135 810 177 841 q 65 761 93 779 l 14 761 q 80 823 43 785 q 169 912 117 860 l 169 910 l 223 966 l 239 966 z "},"ï":{"ha":300,"x_min":22,"x_max":412,"o":"m 198 99 q 199 36 192 57 q 220 5 206 14 q 184 -5 200 -2 q 155 -8 169 -8 q 101 25 113 -8 q 94 96 89 57 l 161 535 q 163 599 166 573 q 153 640 160 626 q 228 647 195 643 q 299 655 262 651 q 281 615 289 639 q 268 556 273 591 l 198 99 l 198 99 m 27 851 q 57 912 34 889 q 109 934 80 934 q 148 911 133 934 q 160 856 163 888 q 132 799 155 821 q 81 777 109 777 q 38 797 54 777 q 27 852 22 817 l 27 851 m 276 851 q 306 912 283 889 q 358 934 329 934 q 397 911 382 934 q 409 856 412 888 q 381 799 404 821 q 330 777 358 777 q 287 797 303 777 q 276 852 271 817 l 276 851 z "},"ð":{"ha":637,"x_min":56,"x_max":624,"o":"m 391 648 q 283 634 337 653 q 184 576 230 615 q 106 479 139 536 q 62 353 73 421 q 57 314 59 332 q 56 278 56 295 q 119 81 56 158 q 297 -8 182 5 q 405 7 353 -14 q 499 74 457 29 q 572 187 541 120 q 616 335 602 254 q 622 387 619 361 q 624 436 624 413 q 586 650 624 556 q 498 812 548 744 q 402 921 449 880 q 337 977 354 963 l 287 955 q 339 911 308 940 q 404 836 370 881 q 468 729 437 790 q 517 589 498 667 q 441 632 476 619 q 391 648 407 645 m 329 985 l 346 982 l 337 977 l 337 979 l 332 983 q 329 985 330 985 m 164 350 q 199 460 174 415 q 254 532 223 504 q 318 571 284 560 q 380 580 351 581 q 437 556 412 575 q 479 510 461 538 q 505 446 496 482 q 514 370 514 410 q 514 344 514 358 q 511 318 514 330 l 511 319 q 477 191 500 241 q 428 112 455 140 q 370 73 401 83 q 310 65 338 62 q 256 83 283 69 q 208 124 230 97 q 173 190 187 150 q 160 283 160 230 q 164 350 160 313 m 265 747 l 581 945 q 572 965 576 958 q 560 985 568 972 l 246 787 l 265 747 z "},"ñ":{"ha":675,"x_min":57,"x_max":650,"o":"m 535 433 q 523 542 548 503 q 442 576 498 581 q 347 548 394 572 q 252 485 300 525 q 224 295 238 394 q 198 104 211 195 q 193 77 195 91 q 192 53 192 62 q 194 24 192 37 q 200 3 196 11 q 126 2 163 3 q 57 0 89 2 q 77 39 69 14 q 93 101 86 64 l 160 543 q 162 607 164 581 q 155 648 160 632 l 273 648 q 271 610 273 637 q 265 560 268 583 q 394 628 335 607 q 500 656 453 650 q 616 623 583 661 q 650 525 650 584 q 645 460 650 493 l 587 99 q 589 37 581 59 q 610 5 597 14 q 544 -8 573 -8 q 491 24 503 -8 q 485 96 479 56 l 535 433 l 535 433 m 477 779 q 427 786 455 779 q 382 811 399 793 q 343 837 364 827 q 302 848 322 848 q 254 832 276 848 q 219 779 231 816 l 184 779 q 241 877 203 846 q 326 908 279 908 q 374 898 346 908 q 421 873 401 888 q 457 852 437 860 q 495 843 476 843 q 549 857 525 843 q 587 908 573 872 l 623 908 q 563 810 602 841 q 477 779 524 779 z "},"ò":{"ha":661,"x_min":61,"x_max":656,"o":"m 67 326 q 101 470 72 407 q 172 576 129 533 q 271 639 216 618 q 385 658 326 659 q 495 630 444 655 q 583 560 546 605 q 638 451 619 516 q 651 305 656 386 q 619 169 647 228 q 548 69 592 110 q 449 8 504 29 q 335 -10 394 -13 q 223 17 275 -8 q 136 85 172 42 q 80 189 99 128 q 67 326 61 251 m 174 322 q 210 129 166 204 q 340 51 254 54 q 415 69 380 49 q 477 122 450 88 q 520 204 503 156 q 541 308 536 251 q 507 510 552 433 q 378 591 461 587 q 238 523 294 594 q 174 322 182 452 m 283 945 q 299 939 284 942 q 334 936 314 937 q 372 933 353 934 q 404 932 391 932 q 431 847 404 896 q 489 761 458 798 l 429 760 q 387 791 413 771 q 336 836 361 811 q 295 888 311 860 q 283 945 278 916 z "},"ó":{"ha":661,"x_min":61,"x_max":656,"o":"m 67 326 q 101 470 72 407 q 172 576 129 533 q 271 639 216 618 q 385 658 326 659 q 495 630 444 655 q 583 560 546 605 q 638 451 619 516 q 651 305 656 386 q 619 169 647 228 q 548 69 592 110 q 449 8 504 29 q 335 -10 394 -13 q 223 17 275 -8 q 136 85 172 42 q 80 189 99 128 q 67 326 61 251 m 174 322 q 210 129 166 204 q 340 51 254 54 q 415 69 380 49 q 477 122 450 88 q 520 204 503 156 q 541 308 536 251 q 507 510 552 433 q 378 591 461 587 q 238 523 294 594 q 174 322 182 452 m 412 932 q 386 890 405 915 q 342 839 367 865 q 291 789 318 813 q 243 749 263 765 l 332 761 q 387 794 354 774 q 451 839 420 814 q 507 891 482 864 q 536 945 532 918 q 512 939 532 942 q 469 936 492 937 q 412 932 442 934 m 538 947 q 536 945 538 945 q 538 948 538 947 l 538 947 z "},"ô":{"ha":661,"x_min":61,"x_max":656,"o":"m 67 326 q 101 470 72 407 q 172 576 129 533 q 271 639 216 618 q 385 658 326 659 q 495 630 444 655 q 583 560 546 605 q 638 451 619 516 q 651 305 656 386 q 619 169 647 228 q 548 69 592 110 q 449 8 504 29 q 335 -10 394 -13 q 223 17 275 -8 q 136 85 172 42 q 80 189 99 128 q 67 326 61 251 m 174 322 q 210 129 166 204 q 340 51 254 54 q 415 69 380 49 q 477 122 450 88 q 520 204 503 156 q 541 308 536 251 q 507 510 552 433 q 378 591 461 587 q 238 523 294 594 q 174 322 182 452 m 420 966 l 460 912 q 516 834 485 875 q 573 761 546 793 l 516 761 q 463 809 495 779 q 399 872 431 838 q 315 810 358 841 q 246 761 273 779 l 195 761 q 260 823 223 785 q 350 912 297 860 l 350 910 l 404 966 l 420 966 z "},"õ":{"ha":661,"x_min":61,"x_max":656,"o":"m 67 326 q 101 470 72 407 q 172 576 129 533 q 271 639 216 618 q 385 658 326 659 q 495 630 444 655 q 583 560 546 605 q 638 451 619 516 q 651 305 656 386 q 619 169 647 228 q 548 69 592 110 q 449 8 504 29 q 335 -10 394 -13 q 223 17 275 -8 q 136 85 172 42 q 80 189 99 128 q 67 326 61 251 m 174 322 q 210 129 166 204 q 340 51 254 54 q 415 69 380 49 q 477 122 450 88 q 520 204 503 156 q 541 308 536 251 q 507 510 552 433 q 378 591 461 587 q 238 523 294 594 q 174 322 182 452 m 471 779 q 421 786 449 779 q 375 811 393 793 q 337 837 358 827 q 295 848 316 848 q 247 832 270 848 q 212 779 225 816 l 177 779 q 235 877 196 846 q 319 908 273 908 q 367 898 340 908 q 415 873 394 888 q 450 852 431 860 q 489 843 469 843 q 543 857 519 843 q 581 908 567 872 l 616 908 q 556 810 595 841 q 471 779 517 779 z "},"ö":{"ha":661,"x_min":61,"x_max":656,"o":"m 67 326 q 101 470 72 407 q 172 576 129 533 q 271 639 216 618 q 385 658 326 659 q 495 630 444 655 q 583 560 546 605 q 638 451 619 516 q 651 305 656 386 q 619 169 647 228 q 548 69 592 110 q 449 8 504 29 q 335 -10 394 -13 q 223 17 275 -8 q 136 85 172 42 q 80 189 99 128 q 67 326 61 251 m 174 322 q 210 129 166 204 q 340 51 254 54 q 415 69 380 49 q 477 122 450 88 q 520 204 503 156 q 541 308 536 251 q 507 510 552 433 q 378 591 461 587 q 238 523 294 594 q 174 322 182 452 m 208 851 q 237 912 214 889 q 289 934 260 934 q 328 911 313 934 q 340 856 343 888 q 312 799 335 821 q 262 777 289 777 q 219 797 235 777 q 208 852 203 817 l 208 851 m 457 851 q 486 912 463 889 q 538 934 509 934 q 577 911 562 934 q 589 856 592 888 q 561 799 584 821 q 511 777 538 777 q 468 797 484 777 q 457 852 452 817 l 457 851 z "},"÷":{"ha":686,"x_min":107,"x_max":675,"o":"m 675 468 l 666 388 l 107 388 q 113 429 110 412 q 118 468 115 445 l 675 468 m 436 184 q 403 126 431 147 q 340 105 375 105 q 288 125 308 105 q 271 180 268 145 l 271 179 q 306 238 278 216 q 369 260 334 260 q 422 239 402 260 q 436 185 442 219 l 436 184 m 511 677 q 477 619 504 640 q 415 597 450 597 q 361 617 382 597 q 348 670 340 637 q 380 730 353 707 q 442 752 407 752 q 496 731 477 752 q 511 675 516 710 l 511 677 z "},"ø":{"ha":661,"x_min":34,"x_max":690,"o":"m 34 0 q 329 330 185 169 q 624 659 473 490 l 690 659 q 540 492 613 575 q 393 329 466 410 q 246 166 319 247 q 96 0 172 85 l 34 0 m 69 350 q 106 491 77 431 q 180 590 136 551 q 279 646 223 629 q 394 656 335 663 q 496 625 449 650 q 578 558 543 600 q 633 458 613 516 q 653 330 653 401 q 652 307 653 321 q 650 281 651 294 q 610 151 640 208 q 536 56 580 94 q 437 1 492 18 q 324 -10 383 -16 q 215 26 265 -3 q 129 101 164 54 q 77 211 94 147 q 69 350 61 275 m 176 337 q 173 310 174 322 q 172 283 172 297 q 215 127 172 188 q 329 53 257 65 q 469 110 412 45 q 540 295 527 176 q 542 322 541 310 q 543 351 543 335 q 502 517 543 453 q 386 591 461 581 q 309 580 345 595 q 246 532 273 565 q 200 449 219 498 q 176 337 182 399 z "},"ù":{"ha":682,"x_min":101,"x_max":688,"o":"m 211 220 q 225 110 201 152 q 300 69 249 69 q 394 87 348 69 q 490 142 439 105 l 551 543 q 553 607 556 581 q 546 648 551 632 l 688 648 q 669 607 678 632 q 653 546 659 583 l 587 104 q 585 41 583 67 q 592 0 587 14 l 473 0 q 473 28 473 11 q 482 77 474 45 q 424 34 455 51 q 362 8 393 18 q 302 -5 330 -2 q 249 -8 273 -8 q 177 3 206 -8 q 132 34 148 14 q 108 81 115 54 q 101 137 101 107 q 102 172 101 155 q 107 206 104 188 l 156 543 l 156 541 q 161 592 161 570 q 159 624 161 611 q 153 648 156 637 l 295 648 q 276 607 286 632 q 262 546 267 583 l 211 220 m 217 945 q 234 939 219 942 q 268 936 249 937 q 307 933 287 934 q 338 932 326 932 q 366 847 338 896 q 423 761 393 798 l 364 760 q 322 791 348 771 q 271 836 295 811 q 229 888 246 860 q 217 945 212 916 z "},"ú":{"ha":682,"x_min":101,"x_max":688,"o":"m 211 220 q 225 110 201 152 q 300 69 249 69 q 394 87 348 69 q 490 142 439 105 l 551 543 q 553 607 556 581 q 546 648 551 632 l 688 648 q 669 607 678 632 q 653 546 659 583 l 587 104 q 585 41 583 67 q 592 0 587 14 l 473 0 q 473 28 473 11 q 482 77 474 45 q 424 34 455 51 q 362 8 393 18 q 302 -5 330 -2 q 249 -8 273 -8 q 177 3 206 -8 q 132 34 148 14 q 108 81 115 54 q 101 137 101 107 q 102 172 101 155 q 107 206 104 188 l 156 543 l 156 541 q 161 592 161 570 q 159 624 161 611 q 153 648 156 637 l 295 648 q 276 607 286 632 q 262 546 267 583 l 211 220 m 514 932 q 489 890 508 915 q 445 839 469 865 q 393 789 420 813 q 345 749 366 765 l 434 761 q 489 794 457 774 q 553 839 522 814 q 609 891 584 864 q 639 945 634 918 q 614 939 634 942 q 572 936 594 937 q 514 932 544 934 m 640 947 q 639 945 640 945 q 640 948 640 947 l 640 947 z "},"û":{"ha":682,"x_min":101,"x_max":688,"o":"m 211 220 q 225 110 201 152 q 300 69 249 69 q 394 87 348 69 q 490 142 439 105 l 551 543 q 553 607 556 581 q 546 648 551 632 l 688 648 q 669 607 678 632 q 653 546 659 583 l 587 104 q 585 41 583 67 q 592 0 587 14 l 473 0 q 473 28 473 11 q 482 77 474 45 q 424 34 455 51 q 362 8 393 18 q 302 -5 330 -2 q 249 -8 273 -8 q 177 3 206 -8 q 132 34 148 14 q 108 81 115 54 q 101 137 101 107 q 102 172 101 155 q 107 206 104 188 l 156 543 l 156 541 q 161 592 161 570 q 159 624 161 611 q 153 648 156 637 l 295 648 q 276 607 286 632 q 262 546 267 583 l 211 220 m 431 966 l 471 912 q 527 834 496 875 q 584 761 557 793 l 527 761 q 474 809 506 779 q 410 872 442 838 q 326 810 369 841 q 257 761 284 779 l 206 761 q 271 823 235 785 q 361 912 308 860 l 361 910 l 415 966 l 431 966 z "},"ü":{"ha":682,"x_min":101,"x_max":688,"o":"m 211 220 q 225 110 201 152 q 300 69 249 69 q 394 87 348 69 q 490 142 439 105 l 551 543 q 553 607 556 581 q 546 648 551 632 l 688 648 q 669 607 678 632 q 653 546 659 583 l 587 104 q 585 41 583 67 q 592 0 587 14 l 473 0 q 473 28 473 11 q 482 77 474 45 q 424 34 455 51 q 362 8 393 18 q 302 -5 330 -2 q 249 -8 273 -8 q 177 3 206 -8 q 132 34 148 14 q 108 81 115 54 q 101 137 101 107 q 102 172 101 155 q 107 206 104 188 l 156 543 l 156 541 q 161 592 161 570 q 159 624 161 611 q 153 648 156 637 l 295 648 q 276 607 286 632 q 262 546 267 583 l 211 220 m 217 851 q 247 912 223 889 q 299 934 270 934 q 338 911 322 934 q 350 856 353 888 q 322 799 345 821 q 271 777 299 777 q 228 797 244 777 q 217 852 212 817 l 217 851 m 466 851 q 496 912 473 889 q 548 934 519 934 q 587 911 572 934 q 599 856 602 888 q 571 799 594 821 q 520 777 548 777 q 477 797 493 777 q 466 852 461 817 l 466 851 z "},"ý":{"ha":626,"x_min":-10,"x_max":686,"o":"m 65 -278 q 22 -258 37 -278 q 11 -211 8 -238 q 75 -210 42 -219 q 143 -175 109 -201 q 210 -105 177 -148 q 271 3 243 -61 l 268 24 q 255 78 263 43 q 231 175 246 113 q 198 327 217 236 q 153 548 179 418 q 135 607 145 583 q 117 648 125 632 l 263 648 q 257 603 257 631 q 265 541 257 578 l 351 139 l 552 538 q 578 610 575 586 q 580 647 581 634 q 635 647 610 647 q 686 648 659 648 q 624 551 659 619 q 521 346 565 433 q 444 194 477 259 q 386 83 410 129 q 343 2 362 37 q 260 -132 300 -78 q 186 -217 220 -185 q 121 -263 152 -249 q 65 -278 91 -278 m 14 -193 q 11 -211 11 -203 l -10 -204 l 14 -193 m 471 932 q 445 890 465 915 q 402 839 426 865 q 350 789 377 813 q 302 749 322 765 l 391 761 q 446 794 413 774 q 510 839 479 814 q 566 891 541 864 q 595 945 591 918 q 571 939 591 942 q 528 936 551 937 q 471 932 501 934 m 597 947 q 595 945 597 945 q 597 948 597 947 l 597 947 z "},"þ":{"ha":672,"x_min":16,"x_max":658,"o":"m 267 580 q 364 640 319 624 q 455 656 409 656 q 603 590 548 656 q 658 399 658 524 q 658 377 658 388 q 656 353 658 366 q 625 207 651 273 q 557 94 599 140 q 463 22 516 48 q 354 -3 410 -3 q 275 6 324 -3 q 184 38 225 16 l 152 -177 q 150 -241 147 -216 q 158 -281 153 -267 l 16 -281 q 34 -243 26 -267 q 48 -180 42 -219 l 208 875 q 209 939 212 913 q 201 979 206 964 l 345 979 q 326 939 335 964 q 310 878 318 915 l 267 580 m 554 342 q 548 459 559 413 q 515 531 536 504 q 462 568 493 557 q 393 578 431 578 q 318 553 358 578 q 252 495 279 528 l 196 105 q 260 81 223 91 q 327 72 297 72 q 408 89 369 72 q 478 142 447 107 q 529 227 509 177 q 554 342 549 276 z "},"ÿ":{"ha":626,"x_min":-10,"x_max":686,"o":"m 65 -278 q 22 -258 37 -278 q 11 -211 8 -238 q 75 -210 42 -219 q 143 -175 109 -201 q 210 -105 177 -148 q 271 3 243 -61 l 268 24 q 255 78 263 43 q 231 175 246 113 q 198 327 217 236 q 153 548 179 418 q 135 607 145 583 q 117 648 125 632 l 263 648 q 257 603 257 631 q 265 541 257 578 l 351 139 l 552 538 q 578 610 575 586 q 580 647 581 634 q 635 647 610 647 q 686 648 659 648 q 624 551 659 619 q 521 346 565 433 q 444 194 477 259 q 386 83 410 129 q 343 2 362 37 q 260 -132 300 -78 q 186 -217 220 -185 q 121 -263 152 -249 q 65 -278 91 -278 m 14 -193 q 11 -211 11 -203 l -10 -204 l 14 -193 m 188 851 q 218 912 195 889 q 270 934 241 934 q 309 911 294 934 q 321 856 324 888 q 293 799 316 821 q 243 777 270 777 q 200 797 216 777 q 188 852 184 817 l 188 851 m 437 851 q 467 912 444 889 q 519 934 490 934 q 558 911 543 934 q 570 856 573 888 q 542 799 565 821 q 492 777 519 777 q 449 797 465 777 q 437 852 433 817 l 437 851 z "},"ı":{"ha":300,"x_min":89,"x_max":299,"o":"m 198 99 q 199 36 192 57 q 220 5 206 14 q 184 -5 200 -2 q 155 -8 169 -8 q 101 25 113 -8 q 94 96 89 57 l 161 535 q 163 599 166 573 q 153 640 160 626 q 228 647 195 643 q 299 655 262 651 q 281 615 289 639 q 268 556 273 591 l 198 99 l 198 99 z "},"Ł":{"ha":567,"x_min":26,"x_max":535,"o":"m 509 0 l 35 0 q 65 53 51 19 q 88 133 80 86 q 137 466 112 297 q 188 800 163 635 q 188 881 195 846 q 174 936 182 916 l 343 936 q 314 885 329 918 q 292 803 300 852 l 192 136 l 184 80 l 399 80 q 481 91 449 80 q 535 120 512 102 l 509 0 m 393 602 q 387 562 390 576 q 382 525 385 548 q 204 444 291 484 q 26 362 117 404 q 33 401 29 386 q 40 436 37 415 l 393 602 z "},"ł":{"ha":375,"x_min":40,"x_max":412,"o":"m 284 546 q 345 575 310 559 q 412 607 380 591 q 405 568 409 581 q 399 532 402 554 l 275 473 l 217 104 q 215 40 212 65 q 223 0 217 14 l 80 0 q 100 40 91 16 q 115 101 109 64 l 161 420 l 40 364 l 54 441 l 172 495 l 231 875 q 233 939 236 913 q 225 979 230 964 l 367 979 q 350 939 359 964 q 335 878 340 913 l 284 546 z "},"Œ":{"ha":1095,"x_min":83,"x_max":1157,"o":"m 85 460 q 140 665 94 576 q 255 813 185 754 q 414 904 324 873 q 603 936 504 936 l 1157 936 l 1145 824 q 1014 856 1105 856 l 801 856 l 752 519 l 971 519 q 1027 527 1003 519 q 1068 546 1050 535 l 1050 418 q 1013 437 1036 429 q 956 445 990 445 l 739 445 l 686 80 l 904 80 q 983 87 953 80 q 1034 112 1012 94 l 1014 0 l 528 0 q 353 28 434 0 q 212 109 271 56 q 117 239 152 163 q 83 415 83 316 q 83 437 83 426 q 85 460 83 447 m 615 278 l 699 860 l 594 860 q 453 834 520 860 q 331 758 385 808 q 243 635 278 709 q 201 469 208 562 q 217 308 193 380 q 287 185 241 236 q 398 107 334 134 q 535 80 461 80 l 586 80 l 615 278 z "},"œ":{"ha":1049,"x_min":57,"x_max":1097,"o":"m 888 656 q 988 641 947 656 q 1054 600 1030 626 q 1088 544 1079 575 q 1090 479 1097 512 q 1070 417 1086 447 q 1023 366 1054 388 q 942 329 991 343 q 824 314 892 314 l 650 314 q 656 215 643 262 q 697 132 669 168 q 763 74 725 96 q 846 53 801 53 q 932 68 886 53 q 1015 105 979 83 q 1011 67 1011 78 q 1007 32 1011 56 q 934 3 985 16 q 817 -10 883 -10 q 685 19 747 -10 q 580 109 623 48 q 462 18 527 49 q 330 -10 398 -13 q 221 18 271 -8 q 134 87 171 43 q 77 192 97 131 q 62 326 57 252 q 97 467 69 404 q 169 573 126 530 q 267 638 212 616 q 378 658 321 659 q 509 617 449 655 q 611 508 570 580 q 742 617 669 578 q 888 656 816 656 m 169 322 q 206 129 161 204 q 335 51 251 54 q 411 69 377 49 q 472 122 445 88 q 515 204 498 156 q 538 308 532 251 q 503 510 548 433 q 374 591 458 587 q 235 523 291 594 q 169 322 179 452 m 884 587 q 809 572 846 587 q 743 527 773 556 q 691 460 714 498 q 659 378 669 421 l 854 378 q 964 406 923 378 q 1014 471 1006 434 q 1011 512 1017 492 q 990 550 1006 533 q 948 577 974 567 q 884 587 923 587 z "},"Š":{"ha":610,"x_min":32,"x_max":634,"o":"m 463 193 q 461 262 469 231 q 433 318 452 292 q 386 368 413 345 q 329 413 359 391 q 250 475 289 442 q 181 547 211 508 q 136 633 152 586 q 129 738 121 680 q 164 827 137 787 q 230 893 190 867 q 321 934 270 920 q 429 948 372 948 q 556 935 508 948 q 634 904 603 921 l 618 809 q 549 857 592 840 q 449 875 506 875 q 307 843 356 875 q 247 757 257 811 q 255 696 243 725 q 288 640 267 667 q 339 587 310 613 q 399 538 369 562 q 477 469 441 503 q 539 396 514 434 q 576 313 564 358 q 580 214 587 268 q 541 115 570 158 q 469 42 512 72 q 368 -2 425 13 q 247 -18 311 -18 q 114 -4 166 -18 q 32 27 62 10 q 35 84 34 56 q 40 139 37 112 q 127 79 73 102 q 236 56 180 56 q 396 97 337 56 q 463 193 455 137 m 385 1050 q 370 1068 377 1058 q 359 1086 364 1078 q 295 1176 327 1130 q 238 1253 262 1221 l 297 1253 q 348 1207 316 1237 q 413 1143 380 1177 q 496 1205 453 1173 q 565 1253 538 1236 l 616 1253 q 546 1190 584 1228 q 461 1108 508 1153 q 429 1074 444 1089 q 402 1050 415 1060 l 385 1050 z "},"š":{"ha":520,"x_min":54,"x_max":533,"o":"m 367 145 q 340 212 374 182 q 265 271 307 243 q 209 313 238 291 q 158 362 180 335 q 124 423 136 390 q 117 496 112 457 q 207 620 134 583 q 374 658 279 658 q 455 648 418 658 q 517 627 492 639 l 503 546 q 445 576 481 565 q 369 587 410 587 q 271 571 313 587 q 222 506 230 554 q 227 472 219 489 q 249 440 235 455 q 283 410 263 425 q 324 382 303 396 q 382 340 353 362 q 433 291 410 318 q 467 230 455 263 q 473 153 479 196 q 442 77 466 109 q 382 27 418 46 q 302 -1 346 8 q 209 -10 257 -10 q 121 0 163 -10 q 54 21 80 10 l 62 120 q 135 77 91 96 q 222 59 179 59 q 321 77 283 59 q 367 145 359 96 m 302 795 q 287 813 294 803 q 276 830 281 822 q 212 920 244 875 q 155 998 179 966 l 214 998 q 265 951 233 982 q 330 888 297 921 q 413 949 370 918 q 482 998 455 980 l 533 998 q 463 935 501 972 q 378 852 425 897 q 346 819 361 833 q 319 795 332 805 l 302 795 z "},"Ÿ":{"ha":793,"x_min":137,"x_max":875,"o":"m 477 369 l 442 136 l 442 137 q 437 85 437 110 q 442 34 437 56 q 453 0 447 13 l 286 0 q 315 53 300 19 q 338 133 330 86 l 374 366 l 190 837 q 163 892 177 867 q 137 932 148 916 q 238 934 195 932 q 335 936 281 936 q 324 878 324 910 q 327 843 324 856 l 479 474 l 704 824 q 729 886 723 856 q 734 934 734 916 q 807 935 776 934 q 875 936 838 936 q 836 896 857 920 q 792 841 814 873 l 477 369 m 351 1122 q 381 1183 358 1161 q 433 1205 404 1205 q 472 1182 457 1205 q 484 1127 487 1159 q 456 1070 479 1092 q 405 1049 433 1049 q 362 1069 378 1049 q 351 1124 346 1089 l 351 1122 m 600 1122 q 630 1183 607 1161 q 682 1205 653 1205 q 721 1182 706 1205 q 733 1127 736 1159 q 705 1070 728 1092 q 655 1049 682 1049 q 611 1069 627 1049 q 600 1124 595 1089 l 600 1122 z "},"Ž":{"ha":715,"x_min":3,"x_max":792,"o":"m 18 78 q 86 172 37 109 q 202 318 136 235 q 346 497 268 401 q 503 690 425 594 l 635 856 l 265 856 q 182 847 214 856 q 128 821 150 838 q 133 854 131 840 q 138 881 136 868 q 143 906 140 894 q 148 936 145 918 l 792 936 l 781 875 q 731 807 768 854 q 642 694 694 760 q 522 547 589 629 q 380 372 455 465 l 142 80 l 528 80 q 612 89 581 80 q 666 117 643 97 q 659 83 663 97 q 654 56 656 69 q 649 30 651 43 q 643 0 647 18 l 3 0 l 18 78 m 437 1050 q 423 1068 429 1058 q 412 1086 417 1078 q 347 1176 380 1130 q 291 1253 314 1221 l 350 1253 q 401 1207 369 1237 q 466 1143 433 1177 q 548 1205 506 1173 q 618 1253 591 1236 l 669 1253 q 599 1190 637 1228 q 514 1108 560 1153 q 482 1074 496 1089 q 455 1050 468 1060 l 437 1050 z "},"ž":{"ha":504,"x_min":13,"x_max":557,"o":"m 24 61 l 305 433 l 418 583 l 236 583 q 154 577 185 583 q 101 559 123 572 l 117 648 l 557 648 q 554 623 556 632 q 551 602 552 615 q 504 538 538 581 q 429 440 471 495 q 341 324 388 385 q 253 211 294 263 q 181 118 212 158 q 139 64 150 78 l 335 64 q 419 67 388 64 q 473 86 450 70 l 457 0 l 13 0 l 24 61 m 294 795 q 279 813 286 803 q 268 830 273 822 q 204 920 236 875 q 147 998 171 966 l 206 998 q 257 951 225 982 q 322 888 289 921 q 405 949 362 918 q 474 998 447 980 l 525 998 q 455 935 493 972 q 370 852 417 897 q 338 819 353 833 q 311 795 324 805 l 294 795 z "},"ƒ":{"ha":669,"x_min":-2,"x_max":763,"o":"m 356 584 l 254 584 l 262 648 l 375 648 q 397 716 385 680 q 417 784 409 752 l 417 782 q 518 934 447 880 q 670 988 589 988 q 730 983 710 988 q 763 969 750 977 l 752 899 q 677 920 725 920 q 584 892 626 920 q 522 789 543 864 l 477 648 l 619 648 q 615 615 616 627 q 610 584 613 602 l 458 584 l 342 190 q 301 104 327 142 q 240 39 275 65 q 167 -2 206 13 q 88 -16 128 -16 q 31 -11 49 -16 q 0 2 13 -6 q -2 2 -2 2 l 10 72 q 81 53 34 53 q 174 81 133 53 q 239 184 216 110 l 356 584 z "},"ˆ":{"ha":496,"x_min":115,"x_max":493,"o":"m 340 966 l 380 912 q 436 834 405 875 q 493 761 466 793 l 436 761 q 383 809 415 779 q 319 872 351 838 q 235 810 278 841 q 166 761 193 779 l 115 761 q 180 823 144 785 q 270 912 217 860 l 270 910 l 324 966 l 340 966 z "},"ˇ":{"ha":496,"x_min":145,"x_max":524,"o":"m 292 795 q 278 813 284 803 q 267 830 271 822 q 202 920 235 875 q 145 998 169 966 l 204 998 q 255 951 223 982 q 321 888 287 921 q 403 949 361 918 q 473 998 445 980 l 524 998 q 453 935 492 972 q 369 852 415 897 q 337 819 351 833 q 310 795 322 805 l 292 795 z "},"˘":{"ha":329,"x_min":101,"x_max":383,"o":"m 217 779 q 136 817 171 779 q 102 924 101 854 l 139 924 q 169 860 142 878 q 230 843 196 843 q 296 864 265 843 q 346 924 327 886 l 383 924 q 315 817 362 854 q 222 779 268 779 l 217 779 z "},"˙":{"ha":267,"x_min":133,"x_max":273,"o":"m 137 851 q 167 912 144 889 q 219 934 190 934 q 258 911 243 934 q 270 856 273 888 q 242 799 265 821 q 192 777 219 777 q 148 797 164 777 q 137 852 133 817 l 137 851 z "},"˚":{"ha":441,"x_min":182,"x_max":394,"o":"m 187 848 q 230 926 195 894 q 307 958 265 958 q 371 928 348 958 q 388 852 394 897 q 374 810 385 830 q 346 775 362 790 q 309 751 329 760 q 268 742 289 742 q 204 773 227 742 q 187 849 182 805 l 187 848 m 209 852 q 226 796 206 821 q 278 771 246 771 q 335 794 310 771 q 366 849 361 817 q 350 905 370 881 q 297 929 329 929 q 241 907 267 929 q 209 854 216 884 l 209 852 z "},"˛":{"ha":291,"x_min":24,"x_max":235,"o":"m 164 -18 l 172 -16 q 125 -51 148 -30 q 82 -97 102 -72 q 47 -148 62 -121 q 27 -200 32 -176 q 33 -251 24 -228 q 56 -287 42 -273 q 88 -309 70 -302 q 121 -314 105 -316 q 154 -312 139 -314 q 180 -307 169 -310 q 201 -299 193 -303 l 223 -267 l 206 -267 q 133 -236 163 -267 q 115 -140 102 -206 q 160 -58 129 -97 q 219 3 192 -19 l 164 -18 m 235 11 l 219 3 l 223 8 l 235 11 z "},"˜":{"ha":477,"x_min":88,"x_max":527,"o":"m 382 779 q 331 786 359 779 q 286 811 303 793 q 247 837 268 827 q 206 848 227 848 q 158 832 180 848 q 123 779 136 816 l 88 779 q 145 877 107 846 q 230 908 184 908 q 278 898 251 908 q 326 873 305 888 q 361 852 342 860 q 399 843 380 843 q 453 857 429 843 q 492 908 477 872 l 527 908 q 467 810 506 841 q 382 779 428 779 z "},"˝":{"ha":554,"x_min":188,"x_max":685,"o":"m 356 932 q 330 890 350 915 q 287 839 311 865 q 236 789 263 813 q 188 749 209 765 l 276 761 q 331 794 299 774 q 395 839 364 814 q 451 891 426 864 q 481 945 476 918 q 456 939 476 942 q 413 936 436 937 q 356 932 386 934 m 482 947 q 481 945 482 945 q 482 948 482 947 l 482 947 m 559 932 q 532 890 551 915 q 489 839 512 865 q 437 789 465 813 q 390 749 410 765 l 477 761 q 534 793 501 773 q 598 839 567 814 q 654 891 629 864 q 683 945 678 918 q 659 939 678 942 q 616 936 639 937 q 559 932 589 934 m 685 947 q 683 945 685 945 q 685 948 685 947 l 685 947 z "},"–":{"ha":686,"x_min":32,"x_max":728,"o":"m 728 461 q 721 421 725 439 q 714 383 717 404 l 32 383 q 39 424 35 405 q 46 461 43 442 l 728 461 z "},"—":{"ha":1414,"x_min":27,"x_max":1470,"o":"m 1470 461 q 1463 421 1467 439 q 1456 383 1459 404 l 27 383 q 34 424 30 405 q 42 461 38 442 l 1470 461 z "},"‘":{"ha":297,"x_min":190,"x_max":354,"o":"m 198 773 q 243 876 208 829 q 343 953 278 923 q 307 904 321 929 q 291 857 294 878 q 296 821 287 840 q 321 793 305 801 l 319 793 q 346 761 337 784 q 353 717 354 739 q 320 666 346 683 q 262 651 294 648 q 210 691 230 659 q 198 773 190 723 z "},"’":{"ha":297,"x_min":204,"x_max":369,"o":"m 361 822 q 316 719 351 766 q 216 642 281 672 q 251 691 238 666 q 268 738 265 717 q 263 774 271 755 q 238 801 254 793 l 239 801 q 213 833 222 811 q 206 878 204 856 q 239 929 212 912 q 297 943 265 947 q 349 904 329 936 q 361 822 369 872 z "},"‚":{"ha":302,"x_min":85,"x_max":249,"o":"m 241 24 q 196 -79 231 -32 q 96 -156 161 -126 q 132 -107 118 -133 q 148 -61 145 -81 q 143 -24 152 -43 q 118 3 134 -5 l 120 3 q 93 35 102 13 q 86 80 85 57 q 119 131 93 113 q 177 145 145 148 q 229 105 209 137 q 241 24 249 73 z "},"“":{"ha":516,"x_min":190,"x_max":581,"o":"m 198 773 q 243 876 208 829 q 343 953 278 923 q 307 904 321 929 q 291 857 294 878 q 296 821 287 840 q 321 793 305 801 l 319 793 q 346 761 337 784 q 353 717 354 739 q 320 666 346 683 q 262 651 294 648 q 210 691 230 659 q 198 773 190 723 m 425 773 q 469 876 434 829 q 570 953 504 923 q 534 904 548 929 q 517 857 520 878 q 523 821 514 840 q 548 793 532 801 l 546 793 q 572 761 564 784 q 580 717 581 739 q 547 666 573 683 q 489 651 520 648 q 437 691 457 659 q 425 773 417 723 z "},"”":{"ha":525,"x_min":204,"x_max":597,"o":"m 361 822 q 316 719 351 766 q 216 642 281 672 q 251 691 238 666 q 268 738 265 717 q 263 774 271 755 q 238 801 254 793 l 239 801 q 213 833 222 811 q 206 878 204 856 q 239 929 212 912 q 297 943 265 947 q 349 904 329 936 q 361 822 369 872 m 589 822 q 544 719 580 766 q 444 642 509 672 q 480 691 466 666 q 496 738 493 717 q 491 774 500 755 q 466 801 482 793 l 468 801 q 441 833 450 811 q 434 878 433 856 q 467 929 441 912 q 525 943 493 947 q 577 904 557 936 q 589 822 597 872 z "},"„":{"ha":525,"x_min":85,"x_max":476,"o":"m 241 24 q 196 -79 231 -32 q 96 -156 161 -126 q 132 -107 118 -133 q 148 -61 145 -81 q 143 -24 152 -43 q 118 3 134 -5 l 120 3 q 93 35 102 13 q 86 80 85 57 q 119 131 93 113 q 177 145 145 148 q 229 105 209 137 q 241 24 249 73 m 468 24 q 423 -79 458 -32 q 322 -156 388 -126 q 358 -107 345 -133 q 375 -61 372 -81 q 370 -24 378 -43 q 345 3 361 -5 l 346 3 q 320 35 329 13 q 313 80 311 57 q 346 131 319 113 q 404 145 372 148 q 456 105 436 137 q 468 24 476 73 z "},"†":{"ha":686,"x_min":203,"x_max":650,"o":"m 508 966 l 463 690 l 650 706 l 637 629 l 457 647 l 346 -86 l 276 -86 l 390 647 l 203 631 l 216 707 l 394 690 q 414 826 402 752 q 437 966 426 900 l 508 966 z "},"‡":{"ha":686,"x_min":136,"x_max":650,"o":"m 508 966 l 463 690 l 650 706 l 637 629 l 457 647 l 394 231 l 578 247 l 568 171 l 390 188 q 370 52 382 126 q 348 -86 358 -22 l 276 -86 l 321 188 l 136 172 l 145 249 l 327 231 l 390 647 l 203 631 l 216 707 l 394 690 q 415 826 402 752 q 437 966 428 900 l 508 966 z "},"•":{"ha":476,"x_min":94,"x_max":445,"o":"m 99 391 q 125 466 105 433 q 171 524 144 500 q 231 561 198 548 q 300 575 263 575 q 362 562 334 575 q 410 525 391 549 q 437 468 429 501 q 441 394 445 434 q 417 322 436 354 q 372 267 399 291 q 311 231 345 244 q 243 219 278 219 q 179 231 208 219 q 131 266 150 243 q 103 321 112 289 q 99 391 94 353 z "},"…":{"ha":923,"x_min":69,"x_max":883,"o":"m 73 65 q 107 124 80 102 q 169 145 134 145 q 223 125 203 145 q 236 69 243 104 q 204 11 231 32 q 144 -10 177 -10 q 89 10 110 -10 q 73 65 69 30 m 394 65 q 426 124 399 102 q 489 145 453 145 q 542 125 522 145 q 556 69 562 104 q 524 11 551 32 q 463 -10 496 -10 q 409 10 429 -10 q 394 65 390 30 m 712 64 q 746 123 718 101 q 808 145 773 145 q 862 125 841 145 q 875 69 883 104 q 844 11 870 32 q 782 -10 817 -10 q 729 10 749 -10 q 712 65 709 30 l 712 64 z "},"‰":{"ha":1114,"x_min":59,"x_max":1090,"o":"m 1086 219 q 1058 124 1078 166 q 1012 52 1039 81 q 953 6 985 22 q 888 -10 921 -10 q 776 64 822 -10 q 706 9 741 27 q 639 -10 670 -10 q 548 34 584 -10 q 511 158 511 78 q 516 214 511 182 q 544 316 524 271 q 591 391 564 361 q 650 437 618 421 q 714 453 682 453 q 825 377 776 453 q 963 453 894 453 q 1054 408 1017 453 q 1090 276 1090 362 q 1086 219 1090 249 m 104 706 q 179 883 121 821 q 302 945 236 945 q 394 900 358 945 q 429 771 429 854 q 425 709 429 744 q 398 614 417 656 q 352 543 378 572 q 294 498 326 514 q 228 482 262 482 q 136 527 174 482 q 99 653 99 572 q 104 706 99 677 m 120 0 l 59 0 q 68 10 64 5 q 83 27 72 14 q 115 65 94 40 q 171 135 136 91 q 259 245 206 179 q 390 408 313 311 q 572 635 468 504 q 814 936 677 765 l 878 936 l 120 0 m 586 219 q 581 150 581 180 q 598 65 581 96 q 650 35 615 35 q 716 81 686 35 q 761 201 746 128 l 766 223 q 769 252 768 238 q 769 284 769 267 q 754 376 769 343 q 702 409 738 409 q 630 357 661 409 q 586 219 599 305 m 174 709 q 169 645 169 675 q 187 558 169 591 q 239 525 204 525 q 310 575 279 525 q 353 706 340 624 q 358 745 356 726 q 359 781 359 763 q 341 868 359 837 q 291 899 322 899 q 220 848 249 899 q 174 709 190 797 m 1015 214 q 1020 287 1020 254 q 1003 377 1020 345 q 951 409 987 409 q 882 360 913 409 q 838 230 851 311 q 837 224 838 227 q 837 219 837 222 q 832 150 832 182 q 848 65 832 96 q 899 35 864 35 q 971 84 940 35 q 1015 214 1003 133 z "},"‹":{"ha":431,"x_min":86,"x_max":455,"o":"m 455 674 q 453 653 453 661 q 451 639 452 645 q 449 625 450 632 q 447 607 449 618 l 192 423 l 393 241 q 386 204 390 220 q 380 169 383 187 l 86 391 q 92 422 89 409 q 97 452 94 436 l 455 674 z "},"›":{"ha":431,"x_min":56,"x_max":425,"o":"m 425 453 q 419 423 421 436 q 413 393 417 410 l 56 171 q 61 207 59 195 q 67 239 64 219 l 321 423 l 120 605 q 126 642 123 624 q 133 677 129 659 l 425 453 z "},"⁄":{"ha":236,"x_min":-241,"x_max":572,"o":"m -184 0 l -241 0 q -228 15 -235 6 q -196 55 -222 24 q -119 152 -171 86 q 32 340 -67 217 q 229 590 113 444 q 506 936 345 736 l 572 936 l -184 0 z "},"€":{"ha":811,"x_min":59,"x_max":840,"o":"m 195 623 q 263 761 220 701 q 361 864 307 822 q 477 927 415 905 q 605 948 540 948 q 747 935 688 948 q 840 904 806 921 q 832 852 837 876 q 824 803 827 827 q 739 855 792 835 q 613 875 686 875 q 440 809 512 875 q 326 623 367 742 l 709 623 l 672 544 l 303 544 q 299 501 300 522 q 295 463 297 481 q 294 429 294 450 q 294 393 294 409 l 629 393 q 609 351 619 370 q 591 314 599 332 l 302 314 q 398 129 329 198 q 564 61 466 61 q 765 136 685 61 q 760 107 761 118 q 757 87 758 96 q 754 69 755 78 q 750 45 752 59 q 654 4 704 18 q 532 -10 603 -10 q 405 13 465 -10 q 299 77 345 35 q 220 178 252 118 q 172 314 187 238 l 59 314 l 73 393 l 163 393 q 163 429 163 410 q 164 460 163 447 q 168 493 166 476 q 177 544 169 511 l 94 544 l 107 623 l 195 623 z "},"™":{"ha":608,"x_min":81,"x_max":667,"o":"m 93 940 l 316 940 l 308 881 q 294 898 303 892 q 262 904 284 904 l 222 904 l 192 701 q 192 664 187 675 q 198 651 198 653 l 123 651 q 133 663 125 651 q 147 701 142 675 l 177 904 l 137 904 q 103 898 115 904 q 81 881 91 892 l 93 940 m 391 940 q 412 892 390 939 q 476 736 434 846 q 579 892 548 845 q 608 940 610 939 l 667 940 q 657 927 666 939 q 643 891 648 915 l 616 701 q 617 663 611 675 q 624 651 623 651 l 549 651 q 559 664 551 653 q 572 701 567 675 l 592 840 q 512 718 546 766 q 471 651 479 669 l 450 651 q 437 685 449 659 q 413 741 426 710 q 388 799 399 771 q 374 840 377 827 l 353 701 q 354 664 350 675 q 361 651 359 653 l 294 651 q 304 663 295 651 q 318 701 313 675 l 345 891 q 343 927 348 915 q 337 940 338 939 l 391 940 z "},"−":{"ha":686,"x_min":105,"x_max":677,"o":"m 677 461 l 664 383 l 105 383 l 118 461 l 677 461 z "},"ﬁ":{"ha":666,"x_min":-81,"x_max":683,"o":"m 584 99 q 584 36 578 57 q 603 5 591 14 q 568 -6 584 -3 q 540 -8 552 -8 q 485 24 498 -8 q 481 96 473 56 l 552 584 l 284 584 l 187 -78 q 161 -162 180 -123 q 115 -230 142 -201 q 57 -275 88 -259 q 0 -292 27 -292 q -51 -282 -32 -292 q -81 -254 -70 -271 q 26 -192 -21 -243 q 86 -64 73 -140 l 180 584 l 81 584 q 86 618 85 605 q 91 648 88 631 l 192 648 l 204 736 q 236 828 212 782 q 300 909 260 873 q 397 967 340 945 q 525 988 453 988 q 614 982 576 988 q 678 967 651 975 l 663 856 q 602 902 640 884 q 503 920 564 920 q 429 904 461 920 q 370 864 396 889 q 329 806 345 840 q 308 736 313 773 l 295 648 l 683 648 q 666 607 675 632 q 650 546 656 581 l 584 99 l 584 99 z "},"ﬂ":{"ha":659,"x_min":-83,"x_max":744,"o":"m 594 99 q 595 36 587 57 q 615 5 602 14 q 551 -8 573 -8 q 496 24 509 -8 q 490 96 484 56 l 607 870 q 554 902 591 884 q 466 920 517 920 q 370 890 413 920 q 313 785 326 860 l 295 648 l 445 648 q 441 615 442 629 q 437 584 441 602 l 284 584 l 185 -78 q 159 -162 179 -123 q 113 -230 139 -201 q 56 -275 86 -259 q -3 -292 26 -292 q -53 -282 -35 -292 q -83 -254 -72 -271 q 25 -192 -22 -243 q 83 -64 72 -140 l 179 584 l 80 584 q 85 618 83 605 q 89 648 86 631 l 192 648 q 201 717 195 680 q 211 785 208 754 q 291 934 228 880 q 434 988 354 988 q 542 971 501 988 q 610 937 583 955 l 623 979 l 744 979 q 726 939 734 964 q 710 878 717 915 l 594 99 l 594 99 z "}}}
